<svg width="155" height="66" viewBox="0 0 155 66" fill="none" xmlns="http://www.w3.org/2000/svg">
<g clip-path="url(#clip0_9_65823)">
<path d="M21.4946 47.6635V47.6672L13.4793 50.3392L0.5 40.6644L21.4946 47.6635Z" fill="url(#paint0_linear_9_65823)"/>
<path d="M21.4984 47.6672V56.3215L8.52637 66L21.4984 47.6672Z" fill="url(#paint1_linear_9_65823)"/>
<path d="M29.5206 50.3392L34.4737 66L21.498 47.6672H21.5017L29.5206 50.3392Z" fill="url(#paint2_linear_9_65823)"/>
<path d="M42.5001 40.6644L21.502 47.6635L26.4587 40.6644H42.5001Z" fill="url(#paint3_linear_9_65823)"/>
<path d="M21.4977 25V47.6636H21.4941L16.541 40.6645L21.4977 25Z" fill="url(#paint4_linear_9_65823)"/>
<path d="M16.5415 40.6644L21.4946 47.6635L0.5 40.6644H16.5415Z" fill="url(#paint5_linear_9_65823)"/>
<path d="M21.4984 47.6672L8.52637 66L13.4795 50.3392L21.4948 47.6672H21.4984Z" fill="url(#paint6_linear_9_65823)"/>
<path d="M21.498 47.6672L34.4737 66L21.498 56.3215V47.6672Z" fill="url(#paint7_linear_9_65823)"/>
<path d="M42.5001 40.6644L29.5209 50.3392L21.502 47.6672V47.6635L42.5001 40.6644Z" fill="url(#paint8_linear_9_65823)"/>
<path d="M21.498 25L26.4584 40.6645L21.5017 47.6636H21.498V25Z" fill="url(#paint9_linear_9_65823)"/>
<path d="M21.4985 47.6635L14.4557 50.0127L3.05273 41.5143L21.4985 47.6635Z" fill="url(#paint10_linear_9_65823)"/>
<path d="M21.4983 47.6636V55.2676L10.1025 63.7697L21.4983 47.6636Z" fill="url(#paint11_linear_9_65823)"/>
<path d="M28.5444 50.0127L32.8974 63.7697L21.498 47.6636L28.5444 50.0127Z" fill="url(#paint12_linear_9_65823)"/>
<path d="M39.9474 41.5143L21.498 47.6635L25.851 41.5143H39.9474Z" fill="url(#paint13_linear_9_65823)"/>
<path d="M21.4984 27.7537V47.6636L17.1455 41.5143L21.4984 27.7537Z" fill="url(#paint14_linear_9_65823)"/>
<path d="M21.4985 47.6635L3.05273 41.5143H17.1455L21.4985 47.6635Z" fill="url(#paint15_linear_9_65823)"/>
<path d="M21.4983 47.6636L10.1025 63.7697L14.4555 50.0127L21.4983 47.6636Z" fill="url(#paint16_linear_9_65823)"/>
<path d="M21.498 47.6636L32.8974 63.7697L21.498 55.2676V47.6636Z" fill="url(#paint17_linear_9_65823)"/>
<path d="M39.9474 41.5143L28.5444 50.0127L21.498 47.6635L39.9474 41.5143Z" fill="url(#paint18_linear_9_65823)"/>
<path d="M21.498 27.7537L25.851 41.5143L21.498 47.6636V27.7537Z" fill="url(#paint19_linear_9_65823)"/>
</g>
<g clip-path="url(#clip1_9_65823)">
<path d="M77.491 36.4828V36.4888L64.1321 40.79L42.5 25.2159L77.491 36.4828Z" fill="url(#paint20_linear_9_65823)"/>
<path d="M77.497 36.4888V50.42L55.877 66L77.497 36.4888Z" fill="url(#paint21_linear_9_65823)"/>
<path d="M90.868 40.79L99.1231 66L77.4971 36.4888H77.5031L90.868 40.79Z" fill="url(#paint22_linear_9_65823)"/>
<path d="M112.5 25.2159L77.5029 36.4828L85.7641 25.2159H112.5Z" fill="url(#paint23_linear_9_65823)"/>
<path d="M77.4965 0V36.4828H77.4905L69.2354 25.216L77.4965 0Z" fill="url(#paint24_linear_9_65823)"/>
<path d="M69.2358 25.2159L77.491 36.4828L42.5 25.2159H69.2358Z" fill="url(#paint25_linear_9_65823)"/>
<path d="M77.497 36.4888L55.877 66L64.1321 40.79L77.491 36.4888H77.497Z" fill="url(#paint26_linear_9_65823)"/>
<path d="M77.4971 36.4888L99.1231 66L77.4971 50.42V36.4888Z" fill="url(#paint27_linear_9_65823)"/>
<path d="M112.5 25.2159L90.8678 40.79L77.5029 36.4888V36.4828L112.5 25.2159Z" fill="url(#paint28_linear_9_65823)"/>
<path d="M77.4971 0L85.7643 25.216L77.5031 36.4828H77.4971V0Z" fill="url(#paint29_linear_9_65823)"/>
<path d="M77.4968 36.4828L65.7588 40.2643L46.7539 26.584L77.4968 36.4828Z" fill="url(#paint30_linear_9_65823)"/>
<path d="M77.4968 36.4828V48.7234L58.5039 62.4097L77.4968 36.4828Z" fill="url(#paint31_linear_9_65823)"/>
<path d="M89.2411 40.2643L96.496 62.4097L77.4971 36.4828L89.2411 40.2643Z" fill="url(#paint32_linear_9_65823)"/>
<path d="M108.246 26.584L77.4971 36.4828L84.752 26.584H108.246Z" fill="url(#paint33_linear_9_65823)"/>
<path d="M77.4971 4.43262V36.4828L70.2422 26.584L77.4971 4.43262Z" fill="url(#paint34_linear_9_65823)"/>
<path d="M77.4968 36.4828L46.7539 26.584H70.2419L77.4968 36.4828Z" fill="url(#paint35_linear_9_65823)"/>
<path d="M77.4968 36.4828L58.5039 62.4097L65.7588 40.2643L77.4968 36.4828Z" fill="url(#paint36_linear_9_65823)"/>
<path d="M77.4971 36.4828L96.496 62.4097L77.4971 48.7234V36.4828Z" fill="url(#paint37_linear_9_65823)"/>
<path d="M108.246 26.584L89.2411 40.2643L77.4971 36.4828L108.246 26.584Z" fill="url(#paint38_linear_9_65823)"/>
<path d="M77.4971 4.43262L84.752 26.584L77.4971 36.4828V4.43262Z" fill="url(#paint39_linear_9_65823)"/>
</g>
<g clip-path="url(#clip2_9_65823)">
<path d="M133.495 47.6635V47.6672L125.479 50.3392L112.5 40.6644L133.495 47.6635Z" fill="url(#paint40_linear_9_65823)"/>
<path d="M133.498 47.6672V56.3215L120.526 66L133.498 47.6672Z" fill="url(#paint41_linear_9_65823)"/>
<path d="M141.521 50.3392L146.474 66L133.498 47.6672H133.502L141.521 50.3392Z" fill="url(#paint42_linear_9_65823)"/>
<path d="M154.5 40.6644L133.502 47.6635L138.459 40.6644H154.5Z" fill="url(#paint43_linear_9_65823)"/>
<path d="M133.498 25V47.6636H133.494L128.541 40.6645L133.498 25Z" fill="url(#paint44_linear_9_65823)"/>
<path d="M128.541 40.6644L133.495 47.6635L112.5 40.6644H128.541Z" fill="url(#paint45_linear_9_65823)"/>
<path d="M133.498 47.6672L120.526 66L125.479 50.3392L133.495 47.6672H133.498Z" fill="url(#paint46_linear_9_65823)"/>
<path d="M133.498 47.6672L146.474 66L133.498 56.3215V47.6672Z" fill="url(#paint47_linear_9_65823)"/>
<path d="M154.5 40.6644L141.521 50.3392L133.502 47.6672V47.6635L154.5 40.6644Z" fill="url(#paint48_linear_9_65823)"/>
<path d="M133.498 25L138.458 40.6645L133.502 47.6636H133.498V25Z" fill="url(#paint49_linear_9_65823)"/>
<path d="M133.498 47.6635L126.456 50.0127L115.053 41.5143L133.498 47.6635Z" fill="url(#paint50_linear_9_65823)"/>
<path d="M133.498 47.6636V55.2676L122.103 63.7697L133.498 47.6636Z" fill="url(#paint51_linear_9_65823)"/>
<path d="M140.544 50.0127L144.897 63.7697L133.498 47.6636L140.544 50.0127Z" fill="url(#paint52_linear_9_65823)"/>
<path d="M151.947 41.5143L133.498 47.6635L137.851 41.5143H151.947Z" fill="url(#paint53_linear_9_65823)"/>
<path d="M133.498 27.7537V47.6636L129.146 41.5143L133.498 27.7537Z" fill="url(#paint54_linear_9_65823)"/>
<path d="M133.498 47.6635L115.053 41.5143H129.146L133.498 47.6635Z" fill="url(#paint55_linear_9_65823)"/>
<path d="M133.498 47.6636L122.103 63.7697L126.455 50.0127L133.498 47.6636Z" fill="url(#paint56_linear_9_65823)"/>
<path d="M133.498 47.6636L144.897 63.7697L133.498 55.2676V47.6636Z" fill="url(#paint57_linear_9_65823)"/>
<path d="M151.947 41.5143L140.544 50.0127L133.498 47.6635L151.947 41.5143Z" fill="url(#paint58_linear_9_65823)"/>
<path d="M133.498 27.7537L137.851 41.5143L133.498 47.6636V27.7537Z" fill="url(#paint59_linear_9_65823)"/>
</g>
<defs>
<linearGradient id="paint0_linear_9_65823" x1="20.0412" y1="50.7697" x2="2.91691" y2="39.5059" gradientUnits="userSpaceOnUse">
<stop stop-color="#FDD733"/>
<stop offset="1" stop-color="#F29C14"/>
</linearGradient>
<linearGradient id="paint1_linear_9_65823" x1="4.71574" y1="64.3522" x2="20.2714" y2="53.5696" gradientUnits="userSpaceOnUse">
<stop stop-color="#FDD733"/>
<stop offset="1" stop-color="#F29C14"/>
</linearGradient>
<linearGradient id="paint2_linear_9_65823" x1="33.1613" y1="72.9619" x2="25.711" y2="50.8144" gradientUnits="userSpaceOnUse">
<stop stop-color="#FBC12A"/>
<stop offset="1" stop-color="#F29C14"/>
</linearGradient>
<linearGradient id="paint3_linear_9_65823" x1="21.502" y1="44.164" x2="42.5001" y2="44.164" gradientUnits="userSpaceOnUse">
<stop stop-color="#FCED97"/>
<stop offset="1" stop-color="#FDD733"/>
</linearGradient>
<linearGradient id="paint4_linear_9_65823" x1="24.936" y1="26.2321" x2="17.3388" y2="47.4212" gradientUnits="userSpaceOnUse">
<stop stop-color="#FDD733"/>
<stop offset="1" stop-color="#F29C14"/>
</linearGradient>
<linearGradient id="paint5_linear_9_65823" x1="14.817" y1="44.164" x2="-2.46462" y2="44.164" gradientUnits="userSpaceOnUse">
<stop stop-color="#F9AB21"/>
<stop offset="1" stop-color="#CE7904"/>
</linearGradient>
<linearGradient id="paint6_linear_9_65823" x1="11.1439" y1="68.0967" x2="16.5836" y2="52.5637" gradientUnits="userSpaceOnUse">
<stop stop-color="#F9AB21"/>
<stop offset="1" stop-color="#CE7904"/>
</linearGradient>
<linearGradient id="paint7_linear_9_65823" x1="13.6056" y1="47.734" x2="36.1784" y2="61.2907" gradientUnits="userSpaceOnUse">
<stop stop-color="#FDD733"/>
<stop offset="1" stop-color="#F29C14"/>
</linearGradient>
<linearGradient id="paint8_linear_9_65823" x1="21.502" y1="45.5" x2="42.5001" y2="45.5" gradientUnits="userSpaceOnUse">
<stop stop-color="#FDD733"/>
<stop offset="1" stop-color="#F29C14"/>
</linearGradient>
<linearGradient id="paint9_linear_9_65823" x1="26.6825" y1="47.478" x2="16.5214" y2="26.7353" gradientUnits="userSpaceOnUse">
<stop stop-color="#FDD733"/>
<stop offset="1" stop-color="#F29C14"/>
</linearGradient>
<linearGradient id="paint10_linear_9_65823" x1="-0.501196" y1="39.3544" x2="22.1996" y2="50.414" gradientUnits="userSpaceOnUse">
<stop stop-color="#F9AB21"/>
<stop offset="1" stop-color="#CE7904"/>
</linearGradient>
<linearGradient id="paint11_linear_9_65823" x1="10.3484" y1="59.4685" x2="21.8277" y2="51.9712" gradientUnits="userSpaceOnUse">
<stop stop-color="#F9AB21"/>
<stop offset="1" stop-color="#CE7904"/>
</linearGradient>
<linearGradient id="paint12_linear_9_65823" x1="33.465" y1="65.4471" x2="25.4395" y2="50.463" gradientUnits="userSpaceOnUse">
<stop stop-color="#FDE265"/>
<stop offset="1" stop-color="#FBC12A"/>
</linearGradient>
<linearGradient id="paint13_linear_9_65823" x1="40.9959" y1="38.7978" x2="21.6417" y2="44.9566" gradientUnits="userSpaceOnUse">
<stop stop-color="#FDE265"/>
<stop offset="1" stop-color="#FBC12A"/>
</linearGradient>
<linearGradient id="paint14_linear_9_65823" x1="20.2294" y1="23.7234" x2="19.281" y2="44.4142" gradientUnits="userSpaceOnUse">
<stop stop-color="#FBC12A"/>
<stop offset="1" stop-color="#F29C14"/>
</linearGradient>
<linearGradient id="paint15_linear_9_65823" x1="8.21913" y1="40.5308" x2="25.1542" y2="48.9384" gradientUnits="userSpaceOnUse">
<stop stop-color="#FDD733"/>
<stop offset="1" stop-color="#F29C14"/>
</linearGradient>
<linearGradient id="paint16_linear_9_65823" x1="10.7063" y1="59.7097" x2="21.4806" y2="44.4193" gradientUnits="userSpaceOnUse">
<stop stop-color="#FBC12A"/>
<stop offset="1" stop-color="#F29C14"/>
</linearGradient>
<linearGradient id="paint17_linear_9_65823" x1="30.0918" y1="62.9718" x2="16.3614" y2="45.5236" gradientUnits="userSpaceOnUse">
<stop stop-color="#F9AB21"/>
<stop offset="1" stop-color="#CE7904"/>
</linearGradient>
<linearGradient id="paint18_linear_9_65823" x1="43.0313" y1="38.2077" x2="27.4251" y2="46.9512" gradientUnits="userSpaceOnUse">
<stop stop-color="#FBC12A"/>
<stop offset="1" stop-color="#F29C14"/>
</linearGradient>
<linearGradient id="paint19_linear_9_65823" x1="23.7974" y1="29.1453" x2="23.3899" y2="46.6092" gradientUnits="userSpaceOnUse">
<stop stop-color="#FCED97"/>
<stop offset="1" stop-color="#FDD733"/>
</linearGradient>
<linearGradient id="paint20_linear_9_65823" x1="75.0687" y1="41.483" x2="47.1352" y2="22.4596" gradientUnits="userSpaceOnUse">
<stop stop-color="#FDD733"/>
<stop offset="1" stop-color="#F29C14"/>
</linearGradient>
<linearGradient id="paint21_linear_9_65823" x1="49.5259" y1="63.3476" x2="74.8603" y2="45.1657" gradientUnits="userSpaceOnUse">
<stop stop-color="#FDD733"/>
<stop offset="1" stop-color="#F29C14"/>
</linearGradient>
<linearGradient id="paint22_linear_9_65823" x1="96.9358" y1="77.2071" x2="85.2725" y2="41.31" gradientUnits="userSpaceOnUse">
<stop stop-color="#FBC12A"/>
<stop offset="1" stop-color="#F29C14"/>
</linearGradient>
<linearGradient id="paint23_linear_9_65823" x1="77.5029" y1="30.8494" x2="112.5" y2="30.8494" gradientUnits="userSpaceOnUse">
<stop stop-color="#FCED97"/>
<stop offset="1" stop-color="#FDD733"/>
</linearGradient>
<linearGradient id="paint24_linear_9_65823" x1="83.2269" y1="1.98335" x2="71.3239" y2="36.3555" gradientUnits="userSpaceOnUse">
<stop stop-color="#FDD733"/>
<stop offset="1" stop-color="#F29C14"/>
</linearGradient>
<linearGradient id="paint25_linear_9_65823" x1="66.3616" y1="30.8494" x2="37.559" y2="30.8494" gradientUnits="userSpaceOnUse">
<stop stop-color="#F9AB21"/>
<stop offset="1" stop-color="#CE7904"/>
</linearGradient>
<linearGradient id="paint26_linear_9_65823" x1="60.2395" y1="69.3753" x2="68.7596" y2="44.1861" gradientUnits="userSpaceOnUse">
<stop stop-color="#F9AB21"/>
<stop offset="1" stop-color="#CE7904"/>
</linearGradient>
<linearGradient id="paint27_linear_9_65823" x1="64.3431" y1="36.5963" x2="101.26" y2="59.5517" gradientUnits="userSpaceOnUse">
<stop stop-color="#FDD733"/>
<stop offset="1" stop-color="#F29C14"/>
</linearGradient>
<linearGradient id="paint28_linear_9_65823" x1="77.5029" y1="33" x2="112.5" y2="33" gradientUnits="userSpaceOnUse">
<stop stop-color="#FDD733"/>
<stop offset="1" stop-color="#F29C14"/>
</linearGradient>
<linearGradient id="paint29_linear_9_65823" x1="86.1379" y1="36.1841" x2="70.1315" y2="2.35399" gradientUnits="userSpaceOnUse">
<stop stop-color="#FDD733"/>
<stop offset="1" stop-color="#F29C14"/>
</linearGradient>
<linearGradient id="paint30_linear_9_65823" x1="40.8307" y1="23.1072" x2="78.1503" y2="41.9315" gradientUnits="userSpaceOnUse">
<stop stop-color="#F9AB21"/>
<stop offset="1" stop-color="#CE7904"/>
</linearGradient>
<linearGradient id="paint31_linear_9_65823" x1="58.9137" y1="55.4859" x2="77.6428" y2="42.8211" gradientUnits="userSpaceOnUse">
<stop stop-color="#F9AB21"/>
<stop offset="1" stop-color="#CE7904"/>
</linearGradient>
<linearGradient id="paint32_linear_9_65823" x1="97.442" y1="65.1099" x2="84.7745" y2="40.6228" gradientUnits="userSpaceOnUse">
<stop stop-color="#FDE265"/>
<stop offset="1" stop-color="#FBC12A"/>
</linearGradient>
<linearGradient id="paint33_linear_9_65823" x1="109.993" y1="22.2111" x2="77.9485" y2="32.7688" gradientUnits="userSpaceOnUse">
<stop stop-color="#FDE265"/>
<stop offset="1" stop-color="#FBC12A"/>
</linearGradient>
<linearGradient id="paint34_linear_9_65823" x1="75.3821" y1="-2.05507" x2="73.9073" y2="31.2567" gradientUnits="userSpaceOnUse">
<stop stop-color="#FBC12A"/>
<stop offset="1" stop-color="#F29C14"/>
</linearGradient>
<linearGradient id="paint35_linear_9_65823" x1="55.3646" y1="25.0009" x2="83.1937" y2="39.3054" gradientUnits="userSpaceOnUse">
<stop stop-color="#FDD733"/>
<stop offset="1" stop-color="#F29C14"/>
</linearGradient>
<linearGradient id="paint36_linear_9_65823" x1="59.5102" y1="55.8742" x2="76.6435" y2="30.6996" gradientUnits="userSpaceOnUse">
<stop stop-color="#FBC12A"/>
<stop offset="1" stop-color="#F29C14"/>
</linearGradient>
<linearGradient id="paint37_linear_9_65823" x1="91.82" y1="61.1253" x2="69.9097" y2="32.2979" gradientUnits="userSpaceOnUse">
<stop stop-color="#F9AB21"/>
<stop offset="1" stop-color="#CE7904"/>
</linearGradient>
<linearGradient id="paint38_linear_9_65823" x1="113.386" y1="21.2612" x2="87.815" y2="36.0938" gradientUnits="userSpaceOnUse">
<stop stop-color="#FBC12A"/>
<stop offset="1" stop-color="#F29C14"/>
</linearGradient>
<linearGradient id="paint39_linear_9_65823" x1="81.3294" y1="6.67284" x2="80.6957" y2="34.7864" gradientUnits="userSpaceOnUse">
<stop stop-color="#FCED97"/>
<stop offset="1" stop-color="#FDD733"/>
</linearGradient>
<linearGradient id="paint40_linear_9_65823" x1="132.041" y1="50.7697" x2="114.917" y2="39.5059" gradientUnits="userSpaceOnUse">
<stop stop-color="#FDD733"/>
<stop offset="1" stop-color="#F29C14"/>
</linearGradient>
<linearGradient id="paint41_linear_9_65823" x1="116.716" y1="64.3522" x2="132.271" y2="53.5696" gradientUnits="userSpaceOnUse">
<stop stop-color="#FDD733"/>
<stop offset="1" stop-color="#F29C14"/>
</linearGradient>
<linearGradient id="paint42_linear_9_65823" x1="145.161" y1="72.9619" x2="137.711" y2="50.8144" gradientUnits="userSpaceOnUse">
<stop stop-color="#FBC12A"/>
<stop offset="1" stop-color="#F29C14"/>
</linearGradient>
<linearGradient id="paint43_linear_9_65823" x1="133.502" y1="44.164" x2="154.5" y2="44.164" gradientUnits="userSpaceOnUse">
<stop stop-color="#FCED97"/>
<stop offset="1" stop-color="#FDD733"/>
</linearGradient>
<linearGradient id="paint44_linear_9_65823" x1="136.936" y1="26.2321" x2="129.339" y2="47.4212" gradientUnits="userSpaceOnUse">
<stop stop-color="#FDD733"/>
<stop offset="1" stop-color="#F29C14"/>
</linearGradient>
<linearGradient id="paint45_linear_9_65823" x1="126.817" y1="44.164" x2="109.535" y2="44.164" gradientUnits="userSpaceOnUse">
<stop stop-color="#F9AB21"/>
<stop offset="1" stop-color="#CE7904"/>
</linearGradient>
<linearGradient id="paint46_linear_9_65823" x1="123.144" y1="68.0967" x2="128.584" y2="52.5637" gradientUnits="userSpaceOnUse">
<stop stop-color="#F9AB21"/>
<stop offset="1" stop-color="#CE7904"/>
</linearGradient>
<linearGradient id="paint47_linear_9_65823" x1="125.606" y1="47.734" x2="148.178" y2="61.2907" gradientUnits="userSpaceOnUse">
<stop stop-color="#FDD733"/>
<stop offset="1" stop-color="#F29C14"/>
</linearGradient>
<linearGradient id="paint48_linear_9_65823" x1="133.502" y1="45.5" x2="154.5" y2="45.5" gradientUnits="userSpaceOnUse">
<stop stop-color="#FDD733"/>
<stop offset="1" stop-color="#F29C14"/>
</linearGradient>
<linearGradient id="paint49_linear_9_65823" x1="138.683" y1="47.478" x2="128.521" y2="26.7353" gradientUnits="userSpaceOnUse">
<stop stop-color="#FDD733"/>
<stop offset="1" stop-color="#F29C14"/>
</linearGradient>
<linearGradient id="paint50_linear_9_65823" x1="111.499" y1="39.3544" x2="134.2" y2="50.414" gradientUnits="userSpaceOnUse">
<stop stop-color="#F9AB21"/>
<stop offset="1" stop-color="#CE7904"/>
</linearGradient>
<linearGradient id="paint51_linear_9_65823" x1="122.348" y1="59.4685" x2="133.828" y2="51.9712" gradientUnits="userSpaceOnUse">
<stop stop-color="#F9AB21"/>
<stop offset="1" stop-color="#CE7904"/>
</linearGradient>
<linearGradient id="paint52_linear_9_65823" x1="145.465" y1="65.4471" x2="137.439" y2="50.463" gradientUnits="userSpaceOnUse">
<stop stop-color="#FDE265"/>
<stop offset="1" stop-color="#FBC12A"/>
</linearGradient>
<linearGradient id="paint53_linear_9_65823" x1="152.996" y1="38.7978" x2="133.642" y2="44.9566" gradientUnits="userSpaceOnUse">
<stop stop-color="#FDE265"/>
<stop offset="1" stop-color="#FBC12A"/>
</linearGradient>
<linearGradient id="paint54_linear_9_65823" x1="132.229" y1="23.7234" x2="131.281" y2="44.4142" gradientUnits="userSpaceOnUse">
<stop stop-color="#FBC12A"/>
<stop offset="1" stop-color="#F29C14"/>
</linearGradient>
<linearGradient id="paint55_linear_9_65823" x1="120.219" y1="40.5308" x2="137.154" y2="48.9384" gradientUnits="userSpaceOnUse">
<stop stop-color="#FDD733"/>
<stop offset="1" stop-color="#F29C14"/>
</linearGradient>
<linearGradient id="paint56_linear_9_65823" x1="122.706" y1="59.7097" x2="133.481" y2="44.4193" gradientUnits="userSpaceOnUse">
<stop stop-color="#FBC12A"/>
<stop offset="1" stop-color="#F29C14"/>
</linearGradient>
<linearGradient id="paint57_linear_9_65823" x1="142.092" y1="62.9718" x2="128.361" y2="45.5236" gradientUnits="userSpaceOnUse">
<stop stop-color="#F9AB21"/>
<stop offset="1" stop-color="#CE7904"/>
</linearGradient>
<linearGradient id="paint58_linear_9_65823" x1="155.031" y1="38.2077" x2="139.425" y2="46.9512" gradientUnits="userSpaceOnUse">
<stop stop-color="#FBC12A"/>
<stop offset="1" stop-color="#F29C14"/>
</linearGradient>
<linearGradient id="paint59_linear_9_65823" x1="135.797" y1="29.1453" x2="135.39" y2="46.6092" gradientUnits="userSpaceOnUse">
<stop stop-color="#FCED97"/>
<stop offset="1" stop-color="#FDD733"/>
</linearGradient>
<clipPath id="clip0_9_65823">
<rect width="42" height="41" fill="white" transform="translate(0.5 25)"/>
</clipPath>
<clipPath id="clip1_9_65823">
<rect width="70" height="66" fill="white" transform="translate(42.5)"/>
</clipPath>
<clipPath id="clip2_9_65823">
<rect width="42" height="41" fill="white" transform="translate(112.5 25)"/>
</clipPath>
</defs>
</svg>
