<svg width="151" height="234" viewBox="0 0 151 234" fill="none" xmlns="http://www.w3.org/2000/svg">
<g style="mix-blend-mode:multiply">
<path d="M2.7379 210.354C4.64652 211.214 6.90127 210.374 7.77152 208.455L13.9028 194.947L57.5737 214.784L51.4325 228.293C50.5623 230.202 51.4028 232.466 53.3214 233.327C55.2399 234.197 57.4748 233.337 58.355 231.438L146.181 38.0043C147.042 36.1056 146.211 33.8607 144.283 32.9806C142.394 32.1103 140.139 32.9608 139.269 34.8694L137.479 38.8251L93.8079 18.9873L95.6077 15.0316C96.4582 13.123 95.6275 10.8781 93.7189 9.99797C91.8004 9.12772 89.5555 9.98808 88.6853 11.8868L0.849054 205.33C-0.0310884 207.229 0.809497 209.494 2.7379 210.354ZM91.474 24.1L135.145 43.9279L126.383 63.2317L82.7023 43.4137L91.4641 24.1H91.474ZM80.408 48.5067L124.069 68.3148L115.307 87.6285L71.6461 67.7907L80.408 48.4968V48.5067ZM69.3122 72.9232L112.973 92.7511L104.201 112.045L60.5405 92.2171L69.3024 72.9232H69.3122ZM58.2363 97.3101L101.907 117.148L93.1255 136.442L49.4744 116.614L58.2363 97.3101ZM47.1406 121.727L90.8115 141.555L82.0397 160.858L38.3787 141.03L47.1406 121.727ZM36.0646 146.153L79.7355 165.971L70.9638 185.275L27.3028 165.447L36.0646 146.153ZM24.9788 170.55L68.6398 190.378L59.8779 209.672L16.2169 189.844L24.9788 170.55Z" fill="#A6A8AB"/>
</g>
<path d="M11.7568 199.09C10.8767 201.009 8.63181 201.849 6.71329 200.979C4.80467 200.119 3.94431 197.864 4.82445 195.945L92.6607 2.53162C93.5408 0.632884 95.7857 -0.21759 97.6943 0.642773C99.6128 1.51303 100.453 3.76777 99.5831 5.6764L11.7568 199.09Z" fill="url(#paint0_linear_9_57968)"/>
<path d="M9.28474 194.63C8.43427 196.499 7.27723 197.795 6.70365 197.538C6.13007 197.28 6.34764 195.56 7.19811 193.681L93.0565 4.59846C93.8971 2.73929 95.0442 1.43391 95.6178 1.70092C96.2013 1.95804 95.9837 3.67876 95.1431 5.55772L9.28474 194.63Z" fill="url(#paint1_linear_9_57968)"/>
<path d="M143.205 33.3267C142.562 34.7409 140.851 35.3342 139.388 34.6717L94.9453 14.4877C93.4718 13.8252 92.7993 12.144 93.4322 10.7298C94.075 9.31566 95.7958 8.72231 97.2495 9.38489L141.702 29.5589C143.165 30.2314 143.838 31.9027 143.195 33.3267H143.205Z" fill="url(#paint2_linear_9_57968)"/>
<path d="M141.217 32.3379C140.713 33.4751 139.2 33.9103 137.845 33.2774L96.9926 14.735C95.6278 14.1318 94.9653 12.7176 95.4795 11.5804C95.9937 10.4431 97.5167 10.0179 98.8616 10.6211L139.724 29.1733C141.069 29.7963 141.731 31.2105 141.217 32.3478V32.3379Z" fill="url(#paint3_linear_9_57968)"/>
<path d="M140.831 30.8149C140.723 31.072 140.426 31.1808 140.169 31.0621L97.5857 11.7287C97.3483 11.61 97.2296 11.3034 97.3483 11.076C97.467 10.809 97.7538 10.7101 98.0109 10.8189L140.594 30.1523C140.841 30.271 140.95 30.5677 140.841 30.8149H140.831Z" fill="#F8C031"/>
<path d="M132.119 57.7335C131.476 59.1377 129.765 59.7509 128.302 59.0685L83.8595 38.8945C82.3959 38.2319 81.7136 36.5408 82.3663 35.1366C82.9992 33.7224 84.7199 33.129 86.1736 33.7916L130.616 53.9756C132.079 54.6381 132.772 56.3292 132.129 57.7335H132.119Z" fill="url(#paint4_linear_9_57968)"/>
<path d="M130.15 56.7444C129.636 57.8817 128.123 58.3069 126.768 57.6938L85.9157 39.1515C84.5609 38.5383 83.8785 37.1044 84.4125 35.977C84.9169 34.8299 86.4398 34.4145 87.7946 35.0277L128.647 53.5799C130.012 54.1831 130.674 55.6072 130.16 56.7444H130.15Z" fill="url(#paint5_linear_9_57968)"/>
<path d="M129.736 55.2216C129.627 55.4688 129.35 55.5776 129.093 55.4589L86.5003 36.1156C86.2531 35.9969 86.1443 35.72 86.2531 35.453C86.3717 35.2057 86.6684 35.097 86.9058 35.2156L129.499 54.5392C129.746 54.6579 129.855 54.9546 129.726 55.2117L129.736 55.2216Z" fill="#F8C031"/>
<path d="M121.033 82.1499C120.39 83.5542 118.68 84.1574 117.216 83.485L72.7738 63.301C71.3003 62.6385 70.6377 60.9573 71.2805 59.5431C71.9035 58.1389 73.6243 57.5356 75.0879 58.1982L119.53 78.3821C120.994 79.0447 121.676 80.7358 121.033 82.14V82.1499Z" fill="url(#paint6_linear_9_57968)"/>
<path d="M119.055 81.1512C118.55 82.2884 117.028 82.7137 115.683 82.1005L74.8203 63.5483C73.4753 62.9352 72.793 61.521 73.3072 60.3937C73.8214 59.2465 75.3345 58.8312 76.6893 59.4443L117.542 77.9866C118.887 78.6096 119.569 80.0238 119.045 81.1611L119.055 81.1512Z" fill="url(#paint7_linear_9_57968)"/>
<path d="M118.67 79.6282C118.552 79.8754 118.255 79.9743 118.008 79.8754L75.4246 60.542C75.1773 60.4233 75.0587 60.1365 75.1674 59.8794C75.2861 59.6322 75.5729 59.5135 75.83 59.6322L118.413 78.9656C118.67 79.0843 118.779 79.3711 118.67 79.6282Z" fill="#F8C031"/>
<path d="M109.957 106.556C109.314 107.971 107.603 108.564 106.13 107.901L61.6776 87.7274C60.214 87.0648 59.5415 85.3836 60.1843 83.9596C60.8271 82.5553 62.5478 81.9422 64.0114 82.6245L108.444 102.808C109.907 103.481 110.58 105.162 109.957 106.566V106.556Z" fill="url(#paint8_linear_9_57968)"/>
<path d="M107.979 105.558C107.464 106.705 105.961 107.13 104.606 106.507L63.7539 87.9649C62.4089 87.3418 61.7266 85.9277 62.2408 84.7805C62.755 83.6532 64.278 83.2279 65.6328 83.8411L106.475 102.383C107.83 102.997 108.493 104.43 107.979 105.558Z" fill="url(#paint9_linear_9_57968)"/>
<path d="M107.583 104.025C107.464 104.292 107.168 104.401 106.93 104.282L64.3374 84.9287C64.0803 84.8298 63.9715 84.5233 64.1 84.276C64.2088 84.0288 64.5055 83.9101 64.7527 84.0288L107.356 103.362C107.593 103.481 107.702 103.768 107.593 104.015L107.583 104.025Z" fill="#F8C031"/>
<path d="M98.862 130.963C98.2192 132.367 96.5084 132.971 95.0448 132.298L50.6025 112.124C49.1389 111.452 48.4665 109.77 49.0994 108.346C49.7323 106.952 51.4629 106.339 52.9265 107.001L97.3688 127.195C98.8225 127.858 99.5048 129.539 98.862 130.963Z" fill="url(#paint10_linear_9_57968)"/>
<path d="M96.8936 129.964C96.3892 131.112 94.8663 131.517 93.5213 130.914L52.6689 112.362C51.324 111.748 50.6416 110.334 51.1558 109.187C51.6701 108.05 53.1831 107.625 54.538 108.238L95.3904 126.78C96.7452 127.393 97.4177 128.817 96.8936 129.955V129.964Z" fill="url(#paint11_linear_9_57968)"/>
<path d="M96.5079 128.451C96.3893 128.698 96.0827 128.807 95.8454 128.698L53.2425 109.355C53.0052 109.246 52.8964 108.969 53.0052 108.702C53.1239 108.455 53.4205 108.356 53.6678 108.455L96.2607 127.789C96.4981 127.907 96.6167 128.204 96.5178 128.451H96.5079Z" fill="#F8C031"/>
<path d="M87.7858 155.38C87.1529 156.794 85.4322 157.387 83.9686 156.715L39.5263 136.541C38.0528 135.878 37.3804 134.187 38.0133 132.773C38.666 131.369 40.3768 130.755 41.8404 131.428L86.2728 151.592C87.7463 152.255 88.4286 153.966 87.7759 155.37L87.7858 155.38Z" fill="url(#paint12_linear_9_57968)"/>
<path d="M85.8171 154.361C85.293 155.508 83.7898 155.924 82.435 155.32L41.5825 136.778C40.2277 136.165 39.5552 134.741 40.0794 133.604C40.5936 132.476 42.1067 132.041 43.4615 132.654L84.3139 151.206C85.6787 151.81 86.3511 153.224 85.827 154.361H85.8171Z" fill="url(#paint13_linear_9_57968)"/>
<path d="M85.4026 152.848C85.2938 153.085 84.9972 153.214 84.7499 153.095L42.157 133.742C41.9097 133.643 41.7911 133.346 41.9196 133.089C42.0284 132.842 42.3251 132.733 42.5723 132.852L85.1554 152.185C85.4125 152.284 85.5213 152.591 85.4026 152.848Z" fill="#F8C031"/>
<path d="M76.7002 179.767C76.0673 181.181 74.3466 181.784 72.883 181.121L28.4309 160.937C26.9772 160.275 26.2948 158.584 26.9475 157.17C27.5804 155.765 29.2912 155.162 30.7647 155.825L75.207 176.009C76.6706 176.681 77.343 178.362 76.7002 179.767Z" fill="url(#paint14_linear_9_57968)"/>
<path d="M74.7222 178.778C74.208 179.925 72.7048 180.34 71.35 179.727L30.4877 161.175C29.1427 160.572 28.4802 159.148 28.9944 158C29.5086 156.863 31.0217 156.448 32.3765 157.051L73.229 175.603C74.5739 176.226 75.2562 177.631 74.7321 178.768L74.7222 178.778Z" fill="url(#paint15_linear_9_57968)"/>
<path d="M74.3263 177.265C74.2176 177.512 73.9209 177.621 73.6736 177.512L31.0807 158.159C30.8335 158.05 30.7148 157.753 30.8335 157.506C30.9423 157.259 31.2389 157.14 31.4862 157.259L74.0791 176.592C74.3461 176.721 74.445 176.998 74.3263 177.255V177.265Z" fill="#F8C031"/>
<path d="M65.6238 204.193C64.9809 205.587 63.2701 206.201 61.7966 205.538L17.3643 185.354C15.9007 184.682 15.2282 182.99 15.8611 181.586C16.5039 180.182 18.2147 179.579 19.6882 180.231L64.1305 200.415C65.5941 201.088 66.2764 202.769 65.6336 204.193H65.6238Z" fill="url(#paint16_linear_9_57968)"/>
<path d="M63.6458 203.184C63.1316 204.331 61.6186 204.747 60.2736 204.143L19.4212 185.601C18.0664 184.978 17.384 183.554 17.9081 182.417C18.4125 181.28 19.9453 180.864 21.2902 181.467L62.1328 200.02C63.4975 200.633 64.1601 202.037 63.6458 203.184Z" fill="url(#paint17_linear_9_57968)"/>
<path d="M63.2502 201.661C63.1315 201.908 62.8447 202.027 62.5876 201.918L19.9946 182.565C19.7573 182.456 19.6485 182.16 19.7474 181.903C19.8661 181.655 20.1628 181.556 20.4001 181.655L63.0029 200.999C63.2502 201.107 63.3688 201.414 63.2502 201.651V201.661Z" fill="#F8C031"/>
<path d="M62.3411 222.063C61.461 223.962 59.2161 224.812 57.2976 223.952C55.3989 223.091 54.5583 220.827 55.4088 218.918L143.255 25.5043C144.115 23.5957 146.37 22.7452 148.269 23.6155C150.187 24.4857 151.028 26.7405 150.158 28.6491L62.3411 222.063Z" fill="url(#paint18_linear_9_57968)"/>
<path d="M59.8493 217.583C59.0087 219.462 57.8517 220.757 57.2781 220.5C56.7045 220.233 56.9122 218.513 57.7627 216.653L143.621 27.581C144.462 25.7219 145.638 24.4066 146.212 24.6736C146.786 24.9307 146.558 26.6515 145.727 28.5205L59.8493 217.583Z" fill="url(#paint19_linear_9_57968)"/>
<defs>
<linearGradient id="paint0_linear_9_57968" x1="105.441" y1="97.6861" x2="-1.02096" y2="103.937" gradientUnits="userSpaceOnUse">
<stop stop-color="#FCED97"/>
<stop offset="1" stop-color="#FDD733"/>
</linearGradient>
<linearGradient id="paint1_linear_9_57968" x1="101.478" y1="96.6607" x2="0.850508" y2="102.569" gradientUnits="userSpaceOnUse">
<stop stop-color="#FCD67D"/>
<stop offset="1" stop-color="#FDB019"/>
</linearGradient>
<linearGradient id="paint2_linear_9_57968" x1="142.779" y1="20.5927" x2="93.882" y2="23.4635" gradientUnits="userSpaceOnUse">
<stop stop-color="#FCD67D"/>
<stop offset="1" stop-color="#FDB019"/>
</linearGradient>
<linearGradient id="paint3_linear_9_57968" x1="140.771" y1="20.6315" x2="95.9507" y2="23.2628" gradientUnits="userSpaceOnUse">
<stop stop-color="#FCED97"/>
<stop offset="1" stop-color="#FDD733"/>
</linearGradient>
<linearGradient id="paint4_linear_9_57968" x1="131.691" y1="45.0089" x2="82.8039" y2="47.8791" gradientUnits="userSpaceOnUse">
<stop stop-color="#FCD67D"/>
<stop offset="1" stop-color="#FDB019"/>
</linearGradient>
<linearGradient id="paint5_linear_9_57968" x1="129.691" y1="45.037" x2="84.871" y2="47.6684" gradientUnits="userSpaceOnUse">
<stop stop-color="#FCED97"/>
<stop offset="1" stop-color="#FDD733"/>
</linearGradient>
<linearGradient id="paint6_linear_9_57968" x1="120.603" y1="69.4151" x2="71.7252" y2="72.2847" gradientUnits="userSpaceOnUse">
<stop stop-color="#FCD67D"/>
<stop offset="1" stop-color="#FDB019"/>
</linearGradient>
<linearGradient id="paint7_linear_9_57968" x1="118.603" y1="69.4533" x2="73.7932" y2="72.0841" gradientUnits="userSpaceOnUse">
<stop stop-color="#FCED97"/>
<stop offset="1" stop-color="#FDD733"/>
</linearGradient>
<linearGradient id="paint8_linear_9_57968" x1="109.523" y1="93.8207" x2="60.6361" y2="96.6909" gradientUnits="userSpaceOnUse">
<stop stop-color="#FCD67D"/>
<stop offset="1" stop-color="#FDB019"/>
</linearGradient>
<linearGradient id="paint9_linear_9_57968" x1="107.514" y1="93.8595" x2="62.7042" y2="96.4903" gradientUnits="userSpaceOnUse">
<stop stop-color="#FCED97"/>
<stop offset="1" stop-color="#FDD733"/>
</linearGradient>
<linearGradient id="paint10_linear_9_57968" x1="98.4357" y1="118.227" x2="49.5484" y2="121.097" gradientUnits="userSpaceOnUse">
<stop stop-color="#FCD67D"/>
<stop offset="1" stop-color="#FDB019"/>
</linearGradient>
<linearGradient id="paint11_linear_9_57968" x1="96.4457" y1="118.255" x2="51.6257" y2="120.886" gradientUnits="userSpaceOnUse">
<stop stop-color="#FCED97"/>
<stop offset="1" stop-color="#FDD733"/>
</linearGradient>
<linearGradient id="paint12_linear_9_57968" x1="87.3567" y1="142.633" x2="38.4595" y2="145.503" gradientUnits="userSpaceOnUse">
<stop stop-color="#FCD67D"/>
<stop offset="1" stop-color="#FDB019"/>
</linearGradient>
<linearGradient id="paint13_linear_9_57968" x1="85.3571" y1="142.671" x2="40.5372" y2="145.302" gradientUnits="userSpaceOnUse">
<stop stop-color="#FCED97"/>
<stop offset="1" stop-color="#FDD733"/>
</linearGradient>
<linearGradient id="paint14_linear_9_57968" x1="76.2684" y1="167.039" x2="27.381" y2="169.909" gradientUnits="userSpaceOnUse">
<stop stop-color="#FCD67D"/>
<stop offset="1" stop-color="#FDB019"/>
</linearGradient>
<linearGradient id="paint15_linear_9_57968" x1="74.2694" y1="167.077" x2="29.4593" y2="169.708" gradientUnits="userSpaceOnUse">
<stop stop-color="#FCED97"/>
<stop offset="1" stop-color="#FDD733"/>
</linearGradient>
<linearGradient id="paint16_linear_9_57968" x1="65.1891" y1="191.445" x2="16.2919" y2="194.315" gradientUnits="userSpaceOnUse">
<stop stop-color="#FCD67D"/>
<stop offset="1" stop-color="#FDB019"/>
</linearGradient>
<linearGradient id="paint17_linear_9_57968" x1="63.1803" y1="191.483" x2="18.3604" y2="194.115" gradientUnits="userSpaceOnUse">
<stop stop-color="#FCED97"/>
<stop offset="1" stop-color="#FDD733"/>
</linearGradient>
<linearGradient id="paint18_linear_9_57968" x1="156.015" y1="120.661" x2="49.5728" y2="126.911" gradientUnits="userSpaceOnUse">
<stop stop-color="#FCED97"/>
<stop offset="1" stop-color="#FDD733"/>
</linearGradient>
<linearGradient id="paint19_linear_9_57968" x1="152.062" y1="119.635" x2="51.4245" y2="125.544" gradientUnits="userSpaceOnUse">
<stop stop-color="#FCD67D"/>
<stop offset="1" stop-color="#FDB019"/>
</linearGradient>
</defs>
</svg>
