<svg width="27" height="56" viewBox="0 0 27 56" fill="none" xmlns="http://www.w3.org/2000/svg">
<path d="M0.78675 45.9173C0.79891 46.0638 0.811071 46.2165 0.835391 46.3631C0.853631 46.4852 0.890105 46.6074 0.914425 46.7295C0.944825 46.87 0.98131 47.0165 1.02387 47.157C1.06035 47.273 1.10899 47.3891 1.15763 47.5051C1.21235 47.6517 1.27315 47.7982 1.34003 47.9448C1.39475 48.0547 1.45555 48.1585 1.51635 48.2685C1.60755 48.4334 1.70483 48.5982 1.81428 48.7631C1.88116 48.8608 1.94803 48.9525 2.02099 49.0502C2.18515 49.27 2.36755 49.4838 2.56212 49.6975C2.63508 49.7769 2.70196 49.8563 2.77492 49.9296C2.89652 50.0517 3.03027 50.1678 3.15796 50.2838C3.27348 50.3876 3.389 50.4975 3.51668 50.6014C3.6626 50.7174 3.82068 50.8334 3.97876 50.9433C4.13684 51.0594 4.28884 51.1754 4.45908 51.2853C4.84212 51.5357 5.24341 51.7556 5.66293 51.9632C5.78453 52.0243 5.90613 52.0793 6.02773 52.1342C6.34997 52.2869 6.68437 52.4274 7.01877 52.5556C7.14645 52.6045 7.26805 52.6533 7.39573 52.7022C7.60245 52.7754 7.82134 52.8426 8.03414 52.9037C8.20438 52.9586 8.3807 53.0136 8.55702 53.0625C8.7759 53.1235 8.99478 53.1663 9.21366 53.2213C9.38998 53.264 9.5663 53.3067 9.74262 53.3434C10.2108 53.435 10.685 53.5083 11.1653 53.5633C11.3356 53.5816 11.5119 53.5938 11.6882 53.6121C11.9497 53.6365 12.2111 53.6549 12.4786 53.6732C12.6793 53.6854 12.886 53.6854 13.0866 53.6915C13.2994 53.6915 13.5062 53.6915 13.719 53.6915C13.9318 53.6915 14.1446 53.6793 14.3574 53.6732C14.5641 53.661 14.7647 53.6549 14.9714 53.6365C15.1721 53.6182 15.3788 53.5999 15.5794 53.5816C15.7801 53.5571 15.9807 53.5327 16.1814 53.5083C16.3881 53.4778 16.6009 53.4472 16.8076 53.4106C17.0204 53.3739 17.2271 53.3312 17.4399 53.2884C17.6284 53.2518 17.8108 53.209 17.9932 53.1663C18.2547 53.1052 18.51 53.0319 18.7654 52.9526C18.9174 52.9098 19.0694 52.8671 19.2214 52.8182C19.6835 52.6655 20.1395 52.4945 20.5772 52.3052C20.6441 52.2747 20.711 52.238 20.7779 52.2075C21.3737 51.9388 21.9513 51.6334 22.4864 51.2914C24.9974 49.6731 26.2499 47.5478 26.2438 45.4226V47.7311C26.256 49.8563 25.0035 51.9815 22.4924 53.5999C21.9513 53.948 21.3676 54.2533 20.7657 54.5281C20.7292 54.5465 20.6988 54.5709 20.6563 54.5831C20.6319 54.5953 20.6137 54.6014 20.5894 54.6075C20.1455 54.803 19.6895 54.974 19.2214 55.1266C19.1849 55.1389 19.1484 55.1572 19.1119 55.1694C19.0025 55.206 18.887 55.2305 18.7715 55.261C18.5161 55.3343 18.2607 55.4076 17.9993 55.4747C17.9263 55.4931 17.8534 55.5175 17.7804 55.5358C17.671 55.5602 17.5615 55.5786 17.4521 55.5969C17.2271 55.6457 17.0083 55.6885 16.7833 55.7251C16.6921 55.7435 16.607 55.7618 16.5158 55.774C16.4185 55.7923 16.3212 55.7984 16.2179 55.8106C16.0051 55.8412 15.7922 55.8656 15.5734 55.89C15.47 55.9022 15.3727 55.9206 15.2694 55.9267C15.1721 55.9328 15.0809 55.9389 14.9836 55.945C14.7647 55.9633 14.5458 55.9755 14.327 55.9816C14.2236 55.9816 14.1142 55.9999 14.0108 55.9999C13.9257 55.9999 13.8466 55.9999 13.7615 55.9999C13.5183 55.9999 13.2751 55.9999 13.038 55.9999C12.9286 55.9999 12.8191 55.9999 12.7097 55.9999C12.6428 55.9999 12.582 55.9877 12.5151 55.9877C12.2172 55.9755 11.9193 55.9511 11.6213 55.9205C11.5119 55.9083 11.4025 55.9083 11.293 55.8961C11.2565 55.8961 11.2261 55.8839 11.1957 55.8778C10.7033 55.8228 10.2108 55.7434 9.73046 55.6518C9.71222 55.6518 9.6879 55.6518 9.66966 55.6396C9.54806 55.6152 9.43255 55.5785 9.31095 55.5541C9.05558 55.4992 8.80022 55.4381 8.55094 55.3709C8.38678 55.3282 8.2287 55.2732 8.07062 55.2244C7.84565 55.1572 7.6207 55.09 7.40182 55.0106C7.35318 54.9923 7.30453 54.9801 7.25589 54.9679C7.17685 54.9373 7.10389 54.9007 7.02485 54.8701C6.68437 54.7419 6.35605 54.6014 6.02773 54.4488C5.90613 54.3938 5.78453 54.3388 5.66293 54.2778C5.24949 54.0701 4.84213 53.8442 4.46517 53.5999L4.30708 53.4961C4.19156 53.4167 4.0882 53.3312 3.97876 53.2518C3.82676 53.1419 3.66868 53.0258 3.52276 52.9098C3.40116 52.8121 3.2978 52.7144 3.18228 52.6106C3.04244 52.4823 2.89651 52.3602 2.76883 52.2258C2.74451 52.2014 2.7202 52.1831 2.69588 52.1586C2.65332 52.1098 2.61684 52.0609 2.57428 52.0182C2.37364 51.7983 2.18515 51.5785 2.02099 51.3525C1.98451 51.3037 1.93587 51.2609 1.90547 51.2121C1.87507 51.1632 1.85075 51.1143 1.82035 51.0655C1.70483 50.9006 1.60755 50.7296 1.51635 50.5586C1.47987 50.4914 1.43123 50.4303 1.39475 50.3632C1.37651 50.3326 1.37043 50.296 1.35219 50.2594C1.27923 50.1067 1.21843 49.954 1.15763 49.8013C1.12723 49.7158 1.07859 49.6364 1.05427 49.5509C1.04211 49.5204 1.04211 49.4899 1.02995 49.4655C0.981307 49.3189 0.950911 49.1784 0.920511 49.0318C0.896191 48.9402 0.865784 48.8425 0.847544 48.7509C0.847544 48.7265 0.847548 48.7021 0.841468 48.6776C0.817148 48.525 0.804986 48.3723 0.792826 48.2196C0.786746 48.1219 0.768504 48.0303 0.762424 47.9326V47.8104L0.756348 45.502C0.756348 45.6425 0.77459 45.7829 0.78675 45.9173Z" fill="#00488B"/>
<path d="M4.51415 39.6274C-0.471465 42.8458 -0.501869 48.0673 4.45335 51.2857C9.40857 54.5041 17.4828 54.5041 22.4685 51.2857C27.4541 48.0673 27.4845 42.8458 22.5293 39.6274C17.574 36.409 9.49977 36.409 4.51415 39.6274Z" fill="#16759E"/>
<path d="M3.67522 41.9547H3.66914C6.03427 31.2186 7.04963 25.7894 8.72772 14.864C10.6064 15.4198 11.561 15.6152 13.4945 15.835C15.4279 15.6152 16.3825 15.4198 18.2612 14.864C19.9271 25.6917 20.9242 31.072 23.2651 41.7165L23.2894 41.8142L23.3198 41.9547C23.3502 42.0951 23.3806 42.2356 23.3988 42.3822V42.4005C23.4171 42.5287 23.4171 42.6631 23.4231 42.7974C23.4231 42.9012 23.4414 42.999 23.4414 43.1089C23.4414 43.2432 23.4231 43.3837 23.411 43.5242C23.4049 43.628 23.3988 43.7257 23.3867 43.8295C23.3684 43.97 23.3319 44.1165 23.3015 44.257C23.2772 44.3608 23.2651 44.4585 23.2407 44.5623C23.2043 44.7089 23.1495 44.8494 23.0948 44.996C23.0583 45.0998 23.034 45.1975 22.9915 45.3013C22.9307 45.4479 22.8577 45.5883 22.7847 45.7349C22.7361 45.8387 22.6935 45.9364 22.6388 46.0402C22.5598 46.1807 22.4625 46.3212 22.3713 46.4677C22.3044 46.5655 22.2497 46.6693 22.1767 46.767C22.0734 46.9135 21.9579 47.054 21.8423 47.1945L21.6174 47.4754C21.4106 47.7075 21.1857 47.9334 20.9425 48.1533C20.4926 48.5624 20.0062 48.9289 19.4772 49.2525L19.4954 49.2281C16.1758 51.2984 11.4637 51.4144 8.00419 49.5457L8.22308 49.6922C8.07716 49.619 7.9434 49.5273 7.79748 49.4418C7.65764 49.3625 7.52388 49.2831 7.39012 49.1976C6.88547 48.88 6.40515 48.5319 5.97955 48.1411L5.85795 48.0311L5.88835 48.0555L5.79107 47.9579L5.85187 48.0311L5.60259 47.7685C5.50531 47.6708 5.40195 47.567 5.31075 47.4693L5.25602 47.4021C5.15874 47.2922 5.07363 47.1761 4.98851 47.0662C4.90947 46.9685 4.82434 46.8708 4.75746 46.767L4.70882 46.6876L4.6541 46.6143L4.69058 46.6571L4.61763 46.541C4.50819 46.3761 4.39874 46.2112 4.30754 46.0402L4.18594 45.7837C4.1069 45.625 4.02786 45.4723 3.96706 45.3135C3.9245 45.2097 3.8941 45.1059 3.8637 44.996C3.81506 44.8555 3.76642 44.715 3.72386 44.5807C3.69346 44.4708 3.6813 44.3547 3.65698 44.2448C3.63266 44.1165 3.59618 43.9822 3.57794 43.8539C3.5597 43.7379 3.5597 43.6219 3.55362 43.5058C3.54754 43.3837 3.5293 43.2554 3.5293 43.1333C3.5293 43.0112 3.54146 42.9012 3.54754 42.7791C3.55362 42.6692 3.55362 42.5531 3.56578 42.4493C3.5901 42.2844 3.62658 42.1195 3.66306 41.9547H3.67522Z" fill="#AA6476"/>
<path d="M10.1323 15.2366C11.4639 15.5602 12.1387 15.6763 13.4946 15.8351C13.7803 15.8045 13.9202 15.7862 14.2059 15.7435C14.6498 27.3895 15.197 39.005 15.8476 50.6389C13.2027 51.1763 10.3269 50.7854 8.01041 49.5335L8.22929 49.6801C8.08337 49.6068 7.9496 49.5152 7.80368 49.4297C7.66384 49.3503 7.53008 49.2709 7.39632 49.1854C6.89168 48.8678 6.41136 48.5197 5.98576 48.1289L5.86415 48.0189L5.89455 48.0434L5.79728 47.9457L5.85808 48.0189L5.60879 47.7564C5.51151 47.6586 5.40815 47.5548 5.31695 47.4571L5.26224 47.3899C5.16496 47.28 5.07983 47.164 4.99471 47.0541L4.95215 46.9991C7.10448 36.5317 8.84337 25.8567 10.1263 15.2427L10.1323 15.2366Z" fill="#C47B70"/>
<path d="M8.16205 45.9731C8.63022 46.0647 9.06189 45.6616 9.12269 45.0876C10.0165 36.3118 10.4117 31.9148 11.0744 23.1085C11.1169 22.5283 10.8859 22.0153 10.5515 21.9481C10.2232 21.881 9.90702 22.2901 9.8523 22.8703C9.0011 31.6461 8.51469 36.0248 7.43853 44.7639C7.36557 45.338 7.68781 45.8876 8.15597 45.9792L8.16205 45.9731Z" fill="#EFBAD3"/>
<path d="M3.67522 41.9547H3.66914C6.03427 31.2186 7.04963 25.7894 8.72772 14.864C10.6064 15.4198 11.561 15.6152 13.4945 15.835C15.4279 15.6152 16.3825 15.4198 18.2612 14.864C19.9271 25.6917 20.9242 31.072 23.2651 41.7165L23.2894 41.8142L23.3198 41.9547C23.3502 42.0951 23.3806 42.2356 23.3988 42.3822V42.4005C23.4171 42.5287 23.4171 42.6631 23.4231 42.7974C23.4231 42.9012 23.4414 42.999 23.4414 43.1089C23.4414 43.2432 23.4231 43.3837 23.411 43.5242C23.4049 43.628 23.3988 43.7257 23.3867 43.8295C23.3684 43.97 23.3319 44.1165 23.3015 44.257C23.2772 44.3608 23.2651 44.4585 23.2407 44.5623C23.2043 44.7089 23.1495 44.8494 23.0948 44.996C23.0583 45.0998 23.034 45.1975 22.9915 45.3013C22.9307 45.4479 22.8577 45.5883 22.7847 45.7349C22.7361 45.8387 22.6935 45.9364 22.6388 46.0402C22.5598 46.1807 22.4625 46.3212 22.3713 46.4677C22.3044 46.5655 22.2497 46.6693 22.1767 46.767C22.0734 46.9135 21.9579 47.054 21.8423 47.1945L21.6174 47.4754C21.4106 47.7075 21.1857 47.9334 20.9425 48.1533C20.4926 48.5624 20.0062 48.9289 19.4772 49.2525L19.4954 49.2281C16.1758 51.2984 11.4637 51.4144 8.00419 49.5457L8.22308 49.6922C8.07716 49.619 7.9434 49.5273 7.79748 49.4418C7.65764 49.3625 7.52388 49.2831 7.39012 49.1976C6.88547 48.88 6.40515 48.5319 5.97955 48.1411L5.85795 48.0311L5.88835 48.0555L5.79107 47.9579L5.85187 48.0311L5.60259 47.7685C5.50531 47.6708 5.40195 47.567 5.31075 47.4693L5.25602 47.4021C5.15874 47.2922 5.07363 47.1761 4.98851 47.0662C4.90947 46.9685 4.82434 46.8708 4.75746 46.767L4.70882 46.6876L4.6541 46.6143L4.69058 46.6571L4.61763 46.541C4.50819 46.3761 4.39874 46.2112 4.30754 46.0402L4.18594 45.7837C4.1069 45.625 4.02786 45.4723 3.96706 45.3135C3.9245 45.2097 3.8941 45.1059 3.8637 44.996C3.81506 44.8555 3.76642 44.715 3.72386 44.5807C3.69346 44.4708 3.6813 44.3547 3.65698 44.2448C3.63266 44.1165 3.59618 43.9822 3.57794 43.8539C3.5597 43.7379 3.5597 43.6219 3.55362 43.5058C3.54754 43.3837 3.5293 43.2554 3.5293 43.1333C3.5293 43.0112 3.54146 42.9012 3.54754 42.7791C3.55362 42.6692 3.55362 42.5531 3.56578 42.4493C3.5901 42.2844 3.62658 42.1195 3.66306 41.9547H3.67522Z" fill="#064C8C"/>
<path d="M10.1323 15.2366C11.4639 15.5602 12.1387 15.6763 13.4946 15.8351C13.7803 15.8045 13.9202 15.7862 14.2059 15.7435C14.6498 27.3895 15.197 39.005 15.8476 50.6389C13.2027 51.1763 10.3269 50.7854 8.01041 49.5335L8.22929 49.6801C8.08337 49.6068 7.9496 49.5152 7.80368 49.4297C7.66384 49.3503 7.53008 49.2709 7.39632 49.1854C6.89168 48.8678 6.41136 48.5197 5.98576 48.1289L5.86415 48.0189L5.89455 48.0434L5.79728 47.9457L5.85808 48.0189L5.60879 47.7564C5.51151 47.6586 5.40815 47.5548 5.31695 47.4571L5.26224 47.3899C5.16496 47.28 5.07983 47.164 4.99471 47.0541L4.95215 46.9991C7.10448 36.5317 8.84337 25.8567 10.1263 15.2427L10.1323 15.2366Z" fill="#16759E"/>
<path opacity="0.57" d="M8.16205 45.9731C8.63022 46.0647 9.06189 45.6616 9.12269 45.0876C10.0165 36.3118 10.4117 31.9148 11.0744 23.1085C11.1169 22.5283 10.8859 22.0153 10.5515 21.9481C10.2232 21.881 9.90702 22.2901 9.8523 22.8703C9.0011 31.6461 8.51469 36.0248 7.43853 44.7639C7.36557 45.338 7.68781 45.8876 8.15597 45.9792L8.16205 45.9731Z" fill="#CFDBFF"/>
<g style="mix-blend-mode:multiply">
<path d="M13.4943 15.8349C15.4277 15.6151 16.3823 15.4196 18.261 14.8639C18.4556 16.1281 18.638 17.3189 18.8204 18.4487C17.2761 19.438 15.446 20.0182 13.476 20.0182C11.5061 20.0182 9.70644 19.4441 8.16211 18.467C8.34451 17.325 8.52691 16.1342 8.72147 14.8578C10.6002 15.4135 11.5548 15.6089 13.4882 15.8288L13.4943 15.8349Z" fill="#A88CFF"/>
</g>
<path d="M4.49561 9.03836C4.49561 14.0339 8.52666 18.0767 13.494 18.0767C18.4675 18.0767 22.4925 14.0278 22.4925 9.03836C22.4925 4.04894 18.4614 0 13.494 0C8.52666 0 4.49561 4.04894 4.49561 9.03836Z" fill="#064C8C"/>
<path d="M13.0567 15.982C17.3078 15.982 20.754 12.5205 20.754 8.2505C20.754 3.98053 17.3078 0.519043 13.0567 0.519043C8.80557 0.519043 5.35938 3.98053 5.35938 8.2505C5.35938 12.5205 8.80557 15.982 13.0567 15.982Z" fill="#0A6395"/>
<path d="M6.17383 7.02922C6.17383 10.2659 8.78216 12.8858 12.0046 12.8858C15.227 12.8858 17.8353 10.2659 17.8353 7.02922C17.8353 3.79251 15.227 1.17261 12.0046 1.17261C8.78216 1.17261 6.17383 3.79251 6.17383 7.02922Z" fill="#16759E"/>
<path opacity="0.57" d="M7.92529 4.74505C7.92529 5.75271 8.74001 6.57104 9.74321 6.57104C10.7464 6.57104 11.5611 5.75271 11.5611 4.74505C11.5611 3.7374 10.7464 2.91907 9.74321 2.91907C8.74001 2.91907 7.92529 3.7374 7.92529 4.74505Z" fill="#CFDBFF"/>
</svg>
