<svg width="27" height="56" viewBox="0 0 27 56" fill="none" xmlns="http://www.w3.org/2000/svg">
<path d="M0.98779 45.6348C0.999758 45.7791 1.01174 45.9293 1.03567 46.0736C1.05362 46.1938 1.08953 46.314 1.11347 46.4342C1.14339 46.5725 1.17929 46.7167 1.22118 46.855C1.25708 46.9692 1.30495 47.0834 1.35283 47.1976C1.40668 47.3418 1.46652 47.4861 1.53234 47.6303C1.5862 47.7385 1.64604 47.8407 1.70588 47.9489C1.79564 48.1112 1.89138 48.2735 1.99909 48.4358C2.06492 48.5319 2.13074 48.6221 2.20255 48.7183C2.36412 48.9346 2.54365 49.145 2.73514 49.3554C2.80695 49.4335 2.87277 49.5116 2.94458 49.5838C3.06426 49.704 3.19592 49.8182 3.32158 49.9324C3.43528 50.0346 3.54897 50.1428 3.67464 50.2449C3.81825 50.3591 3.97383 50.4733 4.12941 50.5815C4.285 50.6957 4.4346 50.8099 4.60216 50.9181C4.97915 51.1586 5.3741 51.381 5.787 51.5853C5.90668 51.6454 6.02637 51.6995 6.14605 51.7536C6.4632 51.9039 6.79231 52.0421 7.12143 52.1683C7.2471 52.2164 7.36679 52.2645 7.49246 52.3126C7.69591 52.3847 7.91133 52.4509 8.12077 52.511C8.28833 52.5651 8.46186 52.6191 8.63539 52.6672C8.85082 52.7273 9.06625 52.7754 9.28168 52.8235C9.45522 52.8656 9.62875 52.9077 9.80229 52.9437C10.2631 53.0339 10.7298 53.106 11.2026 53.1601C11.3701 53.1781 11.5437 53.1902 11.7172 53.2082C11.9745 53.2322 12.2318 53.2503 12.4951 53.2683C12.6926 53.2803 12.896 53.2803 13.0935 53.2863C13.303 53.2863 13.5064 53.2863 13.7159 53.2863C13.9253 53.2863 14.1347 53.2743 14.3442 53.2683C14.5476 53.2563 14.7451 53.2503 14.9486 53.2322C15.146 53.2142 15.3495 53.1962 15.547 53.1781C15.7444 53.1541 15.9419 53.13 16.1394 53.106C16.3428 53.076 16.5523 53.0459 16.7557 53.0098C16.9652 52.9738 17.1686 52.9317 17.3781 52.8896C17.5636 52.8535 17.7431 52.8115 17.9226 52.7694C18.1799 52.7093 18.4313 52.6372 18.6826 52.559C18.8322 52.517 18.9818 52.4749 19.1314 52.4268C19.5862 52.2765 20.035 52.1082 20.4659 51.9219C20.5317 51.8919 20.5975 51.8558 20.6633 51.8257C21.2498 51.5613 21.8182 51.2607 22.3448 50.9241C24.8162 49.3313 26.049 47.2396 26.043 45.1479V47.42C26.055 49.5117 24.8222 51.6033 22.3508 53.1962C21.8182 53.5388 21.2438 53.8393 20.6514 54.1098C20.6155 54.1278 20.5855 54.1519 20.5496 54.1639C20.5257 54.1759 20.5077 54.1819 20.4838 54.1879C20.047 54.3802 19.5982 54.5485 19.1374 54.6988C19.1015 54.7108 19.0656 54.7289 19.0297 54.7409C18.922 54.777 18.8083 54.801 18.6946 54.831C18.4433 54.9032 18.1919 54.9753 17.9346 55.0414C17.8628 55.0595 17.791 55.0835 17.7192 55.1015C17.6115 55.1256 17.5037 55.1436 17.396 55.1616C17.1746 55.2097 16.9592 55.2518 16.7378 55.2879C16.648 55.3059 16.5643 55.3239 16.4745 55.3359C16.3787 55.354 16.283 55.36 16.1813 55.372C15.9718 55.4021 15.7624 55.4261 15.547 55.4501C15.4452 55.4622 15.3495 55.4802 15.2478 55.4862C15.152 55.4922 15.0623 55.4982 14.9665 55.5042C14.7511 55.5223 14.5357 55.5343 14.3202 55.5403C14.2185 55.5403 14.1108 55.5583 14.0091 55.5583C13.9253 55.5583 13.8475 55.5583 13.7637 55.5583C13.5244 55.5583 13.285 55.5583 13.0516 55.5583C12.9439 55.5583 12.8362 55.5583 12.7285 55.5583C12.6627 55.5583 12.6028 55.5463 12.537 55.5463C12.2438 55.5343 11.9506 55.5103 11.6573 55.4802C11.5496 55.4682 11.4419 55.4682 11.3342 55.4562C11.2983 55.4562 11.2684 55.4441 11.2385 55.4381C10.7537 55.384 10.269 55.3059 9.7963 55.2157C9.77835 55.2157 9.75443 55.2157 9.73647 55.2037C9.61679 55.1797 9.50308 55.1436 9.3834 55.1196C9.13207 55.0655 8.88074 55.0054 8.63539 54.9392C8.47382 54.8972 8.31825 54.8431 8.16267 54.795C7.94126 54.7289 7.71984 54.6627 7.50442 54.5846C7.45655 54.5666 7.40868 54.5546 7.36081 54.5425C7.28302 54.5125 7.2112 54.4764 7.13341 54.4464C6.79831 54.3202 6.47516 54.1819 6.15202 54.0316C6.03234 53.9775 5.91265 53.9235 5.79297 53.8633C5.38606 53.659 4.98515 53.4366 4.61414 53.1962L4.45854 53.094C4.34485 53.0159 4.24311 52.9317 4.1354 52.8535C3.9858 52.7454 3.83022 52.6312 3.6866 52.517C3.56692 52.4208 3.46519 52.3246 3.35149 52.2224C3.21386 52.0962 3.07025 51.976 2.94458 51.8438C2.92065 51.8197 2.89671 51.8017 2.87278 51.7777C2.83089 51.7296 2.79498 51.6815 2.75309 51.6394C2.55562 51.423 2.37011 51.2066 2.20854 50.9843C2.17264 50.9362 2.12476 50.8941 2.09484 50.846C2.06492 50.7979 2.04099 50.7498 2.01107 50.7018C1.89738 50.5335 1.80163 50.3712 1.71187 50.2029C1.67597 50.1368 1.62809 50.0767 1.59218 50.0105C1.57423 49.9805 1.56824 49.9444 1.55029 49.9083C1.47848 49.7581 1.41866 49.6078 1.35882 49.4576C1.3289 49.3734 1.28102 49.2953 1.25708 49.2111C1.24511 49.1811 1.24511 49.151 1.23314 49.127C1.18527 48.9827 1.15535 48.8445 1.12543 48.7002C1.10149 48.6101 1.07158 48.5139 1.05362 48.4237C1.05362 48.3997 1.05362 48.3756 1.04763 48.3516C1.0237 48.2013 1.01174 48.0511 0.99977 47.9008C0.993786 47.8046 0.975823 47.7145 0.969839 47.6183V47.4981L0.963867 45.2261C0.963867 45.3643 0.981812 45.5026 0.99378 45.6348H0.98779Z" fill="#0B6C1B"/>
<path d="M4.656 39.4438C-0.250918 42.6114 -0.280842 47.7505 4.59615 50.9181C9.47314 54.0857 17.42 54.0857 22.3269 50.9181C27.2338 47.7505 27.2637 42.6114 22.3867 39.4438C17.5097 36.2762 9.56291 36.2762 4.656 39.4438Z" fill="#23992E"/>
<path d="M3.83013 41.7343H3.82416C6.15195 31.1676 7.15129 25.8242 8.80289 15.0712C10.652 15.6181 11.5914 15.8105 13.4944 16.0269C15.3973 15.8105 16.3368 15.6181 18.1859 15.0712C19.8255 25.728 20.8069 31.0234 23.1107 41.4999L23.1347 41.596L23.1646 41.7343C23.1945 41.8725 23.2244 42.0108 23.2424 42.155V42.173C23.2603 42.2993 23.2603 42.4315 23.2663 42.5637C23.2663 42.6659 23.2843 42.7621 23.2843 42.8703C23.2843 43.0025 23.2663 43.1408 23.2543 43.279C23.2484 43.3812 23.2424 43.4774 23.2304 43.5795C23.2125 43.7178 23.1765 43.862 23.1466 44.0003C23.1227 44.1025 23.1107 44.1986 23.0868 44.3008C23.0509 44.4451 22.997 44.5833 22.9432 44.7276C22.9073 44.8297 22.8833 44.9259 22.8414 45.0281C22.7816 45.1723 22.7098 45.3106 22.638 45.4548C22.5901 45.557 22.5482 45.6532 22.4944 45.7554C22.4166 45.8936 22.3208 46.0319 22.2311 46.1761C22.1652 46.2723 22.1114 46.3745 22.0396 46.4706C21.9379 46.6149 21.8241 46.7531 21.7105 46.8914L21.489 47.1679C21.2856 47.3963 21.0642 47.6187 20.8248 47.8351C20.382 48.2378 19.9033 48.5984 19.3827 48.917L19.4006 48.8929C16.1333 50.9305 11.4957 51.0447 8.09079 49.2055L8.3062 49.3497C8.16259 49.2776 8.03093 49.1874 7.88731 49.1033C7.74968 49.0252 7.61804 48.947 7.48639 48.8629C6.98972 48.5503 6.51697 48.2077 6.09809 47.823L5.97842 47.7148L6.00833 47.7389L5.91259 47.6427L5.97243 47.7148L5.72708 47.4564C5.63134 47.3602 5.5296 47.258 5.43984 47.1619L5.38599 47.0957C5.29024 46.9876 5.20647 46.8734 5.12269 46.7652C5.0449 46.669 4.96112 46.5728 4.89529 46.4706L4.84743 46.3925L4.79357 46.3204L4.82948 46.3624L4.75767 46.2482C4.64996 46.086 4.54224 45.9237 4.45248 45.7554L4.33281 45.5029C4.25502 45.3467 4.17722 45.1964 4.11738 45.0401C4.07549 44.9379 4.04558 44.8358 4.01566 44.7276C3.96778 44.5893 3.91991 44.4511 3.87802 44.3188C3.8481 44.2107 3.83612 44.0964 3.81218 43.9882C3.78825 43.862 3.75236 43.7298 3.73441 43.6036C3.71645 43.4894 3.71645 43.3752 3.71046 43.267C3.70448 43.1468 3.68652 43.0205 3.68652 42.9003C3.68652 42.7801 3.69849 42.6719 3.70447 42.5517C3.71046 42.4435 3.71046 42.3293 3.72243 42.2271C3.74636 42.0649 3.78227 41.9026 3.81817 41.7403L3.83013 41.7343Z" fill="#B78806"/>
<path d="M10.179 15.4379C11.4895 15.7564 12.1537 15.8706 13.4881 16.0269C13.7694 15.9969 13.907 15.9788 14.1883 15.9368C14.6251 27.399 15.1637 38.8312 15.804 50.2814C13.2009 50.8104 10.3705 50.4257 8.09054 49.1935L8.30595 49.3378C8.16234 49.2656 8.03068 49.1755 7.88706 49.0913C7.74943 49.0132 7.61779 48.9351 7.48614 48.8509C6.98947 48.5384 6.51673 48.1958 6.09784 47.8111L5.97817 47.7029L6.00809 47.7269L5.91234 47.6307L5.97218 47.7029L5.72683 47.4444C5.63109 47.3482 5.52935 47.2461 5.43959 47.1499L5.38574 47.0838C5.29 46.9756 5.20622 46.8614 5.12244 46.7532L5.08057 46.6991C7.19892 36.3969 8.91034 25.8903 10.173 15.4439L10.179 15.4379Z" fill="#D19F00"/>
<path d="M8.24031 45.6894C8.70108 45.7795 9.12594 45.3828 9.18578 44.8178C10.0654 36.1806 10.4544 31.8529 11.1067 23.1856C11.1485 22.6146 10.9212 22.1097 10.592 22.0436C10.2689 21.9775 9.95773 22.3802 9.90388 22.9512C9.06611 31.5885 8.58739 35.8981 7.52821 44.4993C7.4564 45.0643 7.77355 45.6052 8.23432 45.6954L8.24031 45.6894Z" fill="#FCDE63"/>
<path d="M3.83013 41.7343H3.82416C6.15195 31.1676 7.15129 25.8242 8.80289 15.0712C10.652 15.6181 11.5914 15.8105 13.4944 16.0269C15.3973 15.8105 16.3368 15.6181 18.1859 15.0712C19.8255 25.728 20.8069 31.0234 23.1107 41.4999L23.1347 41.596L23.1646 41.7343C23.1945 41.8725 23.2244 42.0108 23.2424 42.155V42.173C23.2603 42.2993 23.2603 42.4315 23.2663 42.5637C23.2663 42.6659 23.2843 42.7621 23.2843 42.8703C23.2843 43.0025 23.2663 43.1408 23.2543 43.279C23.2484 43.3812 23.2424 43.4774 23.2304 43.5795C23.2125 43.7178 23.1765 43.862 23.1466 44.0003C23.1227 44.1025 23.1107 44.1986 23.0868 44.3008C23.0509 44.4451 22.997 44.5833 22.9432 44.7276C22.9073 44.8297 22.8833 44.9259 22.8414 45.0281C22.7816 45.1723 22.7098 45.3106 22.638 45.4548C22.5901 45.557 22.5482 45.6532 22.4944 45.7554C22.4166 45.8936 22.3208 46.0319 22.2311 46.1761C22.1652 46.2723 22.1114 46.3745 22.0396 46.4706C21.9379 46.6149 21.8241 46.7531 21.7105 46.8914L21.489 47.1679C21.2856 47.3963 21.0642 47.6187 20.8248 47.8351C20.382 48.2378 19.9033 48.5984 19.3827 48.917L19.4006 48.8929C16.1333 50.9305 11.4957 51.0447 8.09079 49.2055L8.3062 49.3497C8.16259 49.2776 8.03093 49.1874 7.88731 49.1033C7.74968 49.0252 7.61804 48.947 7.48639 48.8629C6.98972 48.5503 6.51697 48.2077 6.09809 47.823L5.97842 47.7148L6.00833 47.7389L5.91259 47.6427L5.97243 47.7148L5.72708 47.4564C5.63134 47.3602 5.5296 47.258 5.43984 47.1619L5.38599 47.0957C5.29024 46.9876 5.20647 46.8734 5.12269 46.7652C5.0449 46.669 4.96112 46.5728 4.89529 46.4706L4.84743 46.3925L4.79357 46.3204L4.82948 46.3624L4.75767 46.2482C4.64996 46.086 4.54224 45.9237 4.45248 45.7554L4.33281 45.5029C4.25502 45.3467 4.17722 45.1964 4.11738 45.0401C4.07549 44.9379 4.04558 44.8358 4.01566 44.7276C3.96778 44.5893 3.91991 44.4511 3.87802 44.3188C3.8481 44.2107 3.83612 44.0964 3.81218 43.9882C3.78825 43.862 3.75236 43.7298 3.73441 43.6036C3.71645 43.4894 3.71645 43.3752 3.71046 43.267C3.70448 43.1468 3.68652 43.0205 3.68652 42.9003C3.68652 42.7801 3.69849 42.6719 3.70447 42.5517C3.71046 42.4435 3.71046 42.3293 3.72243 42.2271C3.74636 42.0649 3.78227 41.9026 3.81817 41.7403L3.83013 41.7343Z" fill="#13701C"/>
<path d="M10.179 15.4379C11.4895 15.7564 12.1537 15.8706 13.4881 16.0269C13.7694 15.9969 13.907 15.9788 14.1883 15.9368C14.6251 27.399 15.1637 38.8312 15.804 50.2814C13.2009 50.8104 10.3705 50.4257 8.09054 49.1935L8.30595 49.3378C8.16234 49.2656 8.03068 49.1755 7.88706 49.0913C7.74943 49.0132 7.61779 48.9351 7.48614 48.8509C6.98947 48.5384 6.51673 48.1958 6.09784 47.8111L5.97817 47.7029L6.00809 47.7269L5.91234 47.6307L5.97218 47.7029L5.72683 47.4444C5.63109 47.3482 5.52935 47.2461 5.43959 47.1499L5.38574 47.0838C5.29 46.9756 5.20622 46.8614 5.12244 46.7532L5.08057 46.6991C7.19892 36.3969 8.91034 25.8903 10.173 15.4439L10.179 15.4379Z" fill="#23992E"/>
<path opacity="0.43" d="M8.24031 45.6893C8.70108 45.7794 9.12594 45.3827 9.18578 44.8177C10.0654 36.1805 10.4544 31.8528 11.1067 23.1855C11.1485 22.6145 10.9212 22.1096 10.592 22.0435C10.2689 21.9774 9.95773 22.3801 9.90388 22.9511C9.06611 31.5883 8.58739 35.898 7.52821 44.4991C7.4564 45.0641 7.77355 45.6051 8.23432 45.6953L8.24031 45.6893Z" fill="#DCFFBD"/>
<g style="mix-blend-mode:multiply">
<path d="M13.4882 16.0269C15.3912 15.8105 16.3306 15.6182 18.1797 15.0712C18.3712 16.3154 18.5507 17.4875 18.7303 18.5994C17.2103 19.5732 15.4091 20.1442 13.4703 20.1442C11.5434 20.1442 9.76018 19.5792 8.24023 18.6175C8.41976 17.4935 8.59927 16.3214 8.79076 15.0652C10.6398 15.6122 11.5793 15.8045 13.4822 16.0209L13.4882 16.0269Z" fill="#B5B0A7"/>
</g>
<path d="M13.4946 18.2332C18.3858 18.2332 22.3509 14.2505 22.3509 9.33748C22.3509 4.42451 18.3858 0.441772 13.4946 0.441772C8.60333 0.441772 4.63818 4.42451 4.63818 9.33748C4.63818 14.2505 8.60333 18.2332 13.4946 18.2332Z" fill="#13701C"/>
<path d="M13.0577 16.1716C17.2417 16.1716 20.6335 12.7648 20.6335 8.56219C20.6335 4.35961 17.2417 0.952759 13.0577 0.952759C8.87373 0.952759 5.48193 4.35961 5.48193 8.56219C5.48193 12.7648 8.87373 16.1716 13.0577 16.1716Z" fill="#178725"/>
<path d="M12.0282 13.1242C15.1976 13.1242 17.7669 10.5435 17.7669 7.36001C17.7669 4.17654 15.1976 1.59583 12.0282 1.59583C8.85885 1.59583 6.28955 4.17654 6.28955 7.36001C6.28955 10.5435 8.85885 13.1242 12.0282 13.1242Z" fill="#23992E"/>
<path opacity="0.43" d="M8.01318 5.11199C8.01318 6.10374 8.81504 6.90916 9.80241 6.90916C10.7898 6.90916 11.5916 6.10374 11.5916 5.11199C11.5916 4.12024 10.7898 3.31482 9.80241 3.31482C8.81504 3.31482 8.01318 4.12024 8.01318 5.11199Z" fill="#DCFFBD"/>
</svg>
