<svg width="27" height="56" viewBox="0 0 27 56" fill="none" xmlns="http://www.w3.org/2000/svg">
<path d="M0.987808 45.6346C0.999777 45.7788 1.01174 45.9291 1.03567 46.0733C1.05362 46.1936 1.08953 46.3138 1.11347 46.434C1.14339 46.5722 1.17929 46.7165 1.22118 46.8547C1.25708 46.9689 1.30495 47.0831 1.35283 47.1973C1.40668 47.3416 1.46653 47.4858 1.53236 47.6301C1.58621 47.7383 1.64604 47.8405 1.70588 47.9487C1.79564 48.1109 1.8914 48.2732 1.99911 48.4355C2.06494 48.5317 2.13076 48.6218 2.20257 48.718C2.36414 48.9344 2.54365 49.1448 2.73514 49.3551C2.80695 49.4333 2.87277 49.5114 2.94458 49.5835C3.06426 49.7038 3.19592 49.818 3.32158 49.9322C3.43528 50.0344 3.54897 50.1425 3.67464 50.2447C3.81825 50.3589 3.97384 50.4731 4.12943 50.5813C4.28501 50.6955 4.4346 50.8097 4.60216 50.9179C4.97915 51.1583 5.3741 51.3807 5.787 51.5851C5.90668 51.6452 6.02637 51.6993 6.14605 51.7534C6.4632 51.9037 6.79233 52.0419 7.12145 52.1681C7.24711 52.2162 7.36679 52.2643 7.49246 52.3124C7.69591 52.3845 7.91133 52.4506 8.12077 52.5107C8.28833 52.5648 8.46187 52.6189 8.63541 52.667C8.85084 52.7271 9.06625 52.7752 9.28168 52.8233C9.45522 52.8654 9.62875 52.9074 9.80229 52.9435C10.2631 53.0336 10.7298 53.1058 11.2026 53.1599C11.3701 53.1779 11.5437 53.1899 11.7172 53.2079C11.9745 53.232 12.2318 53.25 12.4951 53.2681C12.6926 53.2801 12.896 53.2801 13.0935 53.2861C13.303 53.2861 13.5064 53.2861 13.7159 53.2861C13.9253 53.2861 14.1347 53.2741 14.3442 53.2681C14.5476 53.256 14.7451 53.25 14.9486 53.232C15.146 53.214 15.3495 53.1959 15.547 53.1779C15.7444 53.1539 15.9419 53.1298 16.1394 53.1058C16.3429 53.0757 16.5523 53.0457 16.7558 53.0096C16.9652 52.9735 17.1686 52.9315 17.3781 52.8894C17.5636 52.8533 17.7431 52.8113 17.9226 52.7692C18.1799 52.7091 18.4313 52.6369 18.6826 52.5588C18.8322 52.5167 18.9818 52.4747 19.1314 52.4266C19.5862 52.2763 20.035 52.108 20.4659 51.9217C20.5317 51.8916 20.5975 51.8556 20.6633 51.8255C21.2498 51.561 21.8183 51.2605 22.3449 50.9239C24.8163 49.3311 26.049 47.2394 26.043 45.1477V47.4197C26.055 49.5114 24.8222 51.6031 22.3508 53.1959C21.8182 53.5385 21.2438 53.8391 20.6514 54.1095C20.6155 54.1276 20.5855 54.1516 20.5436 54.1636C20.5197 54.1757 20.5018 54.1817 20.4778 54.1877C20.041 54.38 19.5922 54.5483 19.1314 54.6986C19.0955 54.7106 19.0596 54.7286 19.0237 54.7407C18.916 54.7767 18.8023 54.8008 18.6886 54.8308C18.4373 54.903 18.1859 54.9751 17.9286 55.0412C17.8568 55.0592 17.785 55.0833 17.7132 55.1013C17.6055 55.1253 17.4978 55.1434 17.3901 55.1614C17.1687 55.2095 16.9532 55.2516 16.7318 55.2876C16.6421 55.3056 16.5583 55.3237 16.4685 55.3357C16.3728 55.3537 16.277 55.3598 16.1753 55.3718C15.9659 55.4018 15.7564 55.4259 15.547 55.4499C15.4452 55.4619 15.3495 55.48 15.2478 55.486C15.152 55.492 15.0623 55.498 14.9665 55.504C14.7511 55.522 14.5357 55.5341 14.3202 55.5401C14.2185 55.5401 14.1108 55.5581 14.0091 55.5581C13.9253 55.5581 13.8475 55.5581 13.7637 55.5581C13.5244 55.5581 13.285 55.5581 13.0516 55.5581C12.9439 55.5581 12.8362 55.5581 12.7285 55.5581C12.6627 55.5581 12.6028 55.5461 12.537 55.5461C12.2438 55.5341 11.9506 55.51 11.6573 55.48C11.5496 55.4679 11.4419 55.4679 11.3342 55.4559C11.2983 55.4559 11.2684 55.4439 11.2385 55.4379C10.7538 55.3838 10.2691 55.3057 9.79632 55.2155C9.77837 55.2155 9.75443 55.2155 9.73647 55.2035C9.61679 55.1794 9.5031 55.1434 9.38342 55.1193C9.13209 55.0652 8.88076 55.0051 8.63541 54.939C8.47384 54.8969 8.31825 54.8428 8.16267 54.7948C7.94126 54.7286 7.71984 54.6625 7.50442 54.5844C7.45655 54.5664 7.40868 54.5543 7.36081 54.5423C7.28302 54.5123 7.2112 54.4762 7.13341 54.4461C6.79831 54.3199 6.47518 54.1817 6.15204 54.0314C6.03236 53.9773 5.91267 53.9232 5.79299 53.8631C5.38608 53.6587 4.98515 53.4364 4.61414 53.1959L4.45854 53.0937C4.34485 53.0156 4.24311 52.9315 4.1354 52.8533C3.9858 52.7451 3.83022 52.6309 3.6866 52.5167C3.56692 52.4206 3.46519 52.3244 3.35149 52.2222C3.21386 52.096 3.07025 51.9758 2.94458 51.8435C2.92065 51.8195 2.89671 51.8015 2.87278 51.7774C2.83089 51.7293 2.79498 51.6813 2.75309 51.6392C2.55562 51.4228 2.37011 51.2064 2.20854 50.984C2.17264 50.9359 2.12478 50.8939 2.09486 50.8458C2.06494 50.7977 2.04099 50.7496 2.01107 50.7015C1.89738 50.5332 1.80163 50.3709 1.71187 50.2026C1.67597 50.1365 1.62809 50.0764 1.59218 50.0103C1.57423 49.9802 1.56826 49.9442 1.55031 49.9081C1.4785 49.7579 1.41866 49.6076 1.35882 49.4573C1.3289 49.3732 1.28102 49.295 1.25708 49.2109C1.24511 49.1808 1.24512 49.1508 1.23316 49.1267C1.18528 48.9825 1.15535 48.8442 1.12543 48.7C1.10149 48.6098 1.07158 48.5137 1.05362 48.4235C1.05362 48.3995 1.05364 48.3754 1.04765 48.3514C1.02372 48.2011 1.01174 48.0508 0.99977 47.9006C0.993786 47.8044 0.975841 47.7142 0.969857 47.6181V47.4979L0.963867 45.2258C0.963867 45.3641 0.981812 45.5023 0.99378 45.6346H0.987808Z" fill="#870303"/>
<path d="M4.656 39.4439C-0.250918 42.6115 -0.280842 47.7506 4.59615 50.9182C9.47314 54.0858 17.42 54.0858 22.3269 50.9182C27.2338 47.7506 27.2637 42.6115 22.3867 39.4439C17.5097 36.2763 9.56291 36.2763 4.656 39.4439Z" fill="#FF0000"/>
<path d="M3.83015 41.7345H3.82416C6.15195 31.1678 7.15129 25.8244 8.80289 15.0714C10.652 15.6184 11.5914 15.8107 13.4944 16.0271C15.3973 15.8107 16.3368 15.6184 18.1859 15.0714C19.8255 25.7282 20.8069 31.0236 23.1107 41.5001L23.1347 41.5963L23.1646 41.7345C23.1945 41.8728 23.2244 42.011 23.2424 42.1553V42.1733C23.2603 42.2995 23.2603 42.4317 23.2663 42.564C23.2663 42.6662 23.2843 42.7623 23.2843 42.8705C23.2843 43.0028 23.2663 43.141 23.2543 43.2792C23.2484 43.3814 23.2424 43.4776 23.2304 43.5798C23.2125 43.718 23.1766 43.8623 23.1466 44.0005C23.1227 44.1027 23.1107 44.1989 23.0868 44.301C23.0509 44.4453 22.997 44.5836 22.9432 44.7278C22.9073 44.83 22.8833 44.9262 22.8414 45.0283C22.7816 45.1726 22.7098 45.3108 22.638 45.4551C22.5901 45.5573 22.5482 45.6534 22.4944 45.7556C22.4166 45.8939 22.3208 46.0321 22.2311 46.1764C22.1653 46.2725 22.1114 46.3747 22.0396 46.4709C21.9379 46.6151 21.8242 46.7534 21.7105 46.8916L21.489 47.1681C21.2856 47.3965 21.0642 47.6189 20.8248 47.8353C20.382 48.238 19.9033 48.5986 19.3827 48.9172L19.4006 48.8932C16.1333 50.9308 11.4957 51.045 8.09079 49.2057L8.3062 49.35C8.16259 49.2778 8.03095 49.1877 7.88733 49.1035C7.7497 49.0254 7.61804 48.9473 7.48639 48.8631C6.98972 48.5506 6.51697 48.208 6.09809 47.8233L5.97842 47.7151L6.00833 47.7391L5.91259 47.6429L5.97243 47.7151L5.72708 47.4566C5.63134 47.3604 5.52962 47.2583 5.43986 47.1621L5.38601 47.096C5.29026 46.9878 5.20648 46.8736 5.12271 46.7654C5.04492 46.6692 4.96114 46.5731 4.89531 46.4709L4.84743 46.3927L4.79357 46.3206L4.82948 46.3627L4.75767 46.2485C4.64996 46.0862 4.54224 45.9239 4.45248 45.7556L4.33281 45.5032C4.25502 45.3469 4.17722 45.1966 4.11738 45.0404C4.07549 44.9382 4.04558 44.836 4.01566 44.7278C3.96778 44.5896 3.91991 44.4513 3.87802 44.3191C3.8481 44.2109 3.83614 44.0967 3.8122 43.9885C3.78827 43.8623 3.75236 43.73 3.73441 43.6038C3.71645 43.4896 3.71645 43.3754 3.71046 43.2672C3.70448 43.147 3.68652 43.0208 3.68652 42.9006C3.68652 42.7804 3.69849 42.6722 3.70447 42.552C3.71046 42.4438 3.71048 42.3296 3.72244 42.2274C3.74638 42.0651 3.78227 41.9028 3.81817 41.7405L3.83015 41.7345Z" fill="#B78806"/>
<path d="M10.1853 15.4441C11.4958 15.7627 12.16 15.8768 13.4945 16.0331C13.7757 16.0031 13.9134 15.985 14.1946 15.943C14.6315 27.4052 15.17 38.8374 15.8103 50.2877C13.2072 50.8166 10.3768 50.4319 8.09689 49.1997L8.3123 49.344C8.16869 49.2719 8.03703 49.1817 7.89341 49.0975C7.75578 49.0194 7.62414 48.9413 7.49249 48.8571C6.99582 48.5446 6.52307 48.202 6.10419 47.8173L5.98452 47.7091L6.01443 47.7331L5.91869 47.637L5.97853 47.7091L5.73318 47.4506C5.63744 47.3545 5.5357 47.2523 5.44594 47.1561L5.39209 47.09C5.29634 46.9818 5.21257 46.8676 5.12879 46.7594L5.08691 46.7053C7.20526 36.4031 8.91669 25.8965 10.1793 15.4501L10.1853 15.4441Z" fill="#D19F00"/>
<path d="M8.24617 45.6895C8.70694 45.7797 9.1318 45.383 9.19164 44.818C10.0713 36.1807 10.4603 31.8531 11.1125 23.1858C11.1544 22.6147 10.927 22.1098 10.5979 22.0437C10.2748 21.9776 9.96359 22.3803 9.90974 22.9513C9.07197 31.5886 8.59325 35.8982 7.53407 44.4994C7.46226 45.0644 7.77941 45.6054 8.24018 45.6955L8.24617 45.6895Z" fill="#FCDE63"/>
<path d="M3.83015 41.7345H3.82416C6.15195 31.1678 7.15129 25.8244 8.80289 15.0714C10.652 15.6184 11.5914 15.8107 13.4944 16.0271C15.3973 15.8107 16.3368 15.6184 18.1859 15.0714C19.8255 25.7282 20.8069 31.0236 23.1107 41.5001L23.1347 41.5963L23.1646 41.7345C23.1945 41.8728 23.2244 42.011 23.2424 42.1553V42.1733C23.2603 42.2995 23.2603 42.4317 23.2663 42.564C23.2663 42.6662 23.2843 42.7623 23.2843 42.8705C23.2843 43.0028 23.2663 43.141 23.2543 43.2792C23.2484 43.3814 23.2424 43.4776 23.2304 43.5798C23.2125 43.718 23.1766 43.8623 23.1466 44.0005C23.1227 44.1027 23.1107 44.1989 23.0868 44.301C23.0509 44.4453 22.997 44.5836 22.9432 44.7278C22.9073 44.83 22.8833 44.9262 22.8414 45.0283C22.7816 45.1726 22.7098 45.3108 22.638 45.4551C22.5901 45.5573 22.5482 45.6534 22.4944 45.7556C22.4166 45.8939 22.3208 46.0321 22.2311 46.1764C22.1653 46.2725 22.1114 46.3747 22.0396 46.4709C21.9379 46.6151 21.8242 46.7534 21.7105 46.8916L21.489 47.1681C21.2856 47.3965 21.0642 47.6189 20.8248 47.8353C20.382 48.238 19.9033 48.5986 19.3827 48.9172L19.4006 48.8932C16.1333 50.9308 11.4957 51.045 8.09079 49.2057L8.3062 49.35C8.16259 49.2778 8.03095 49.1877 7.88733 49.1035C7.7497 49.0254 7.61804 48.9473 7.48639 48.8631C6.98972 48.5506 6.51697 48.208 6.09809 47.8233L5.97842 47.7151L6.00833 47.7391L5.91259 47.6429L5.97243 47.7151L5.72708 47.4566C5.63134 47.3604 5.52962 47.2583 5.43986 47.1621L5.38601 47.096C5.29026 46.9878 5.20648 46.8736 5.12271 46.7654C5.04492 46.6692 4.96114 46.5731 4.89531 46.4709L4.84743 46.3927L4.79357 46.3206L4.82948 46.3627L4.75767 46.2485C4.64996 46.0862 4.54224 45.9239 4.45248 45.7556L4.33281 45.5032C4.25502 45.3469 4.17722 45.1966 4.11738 45.0404C4.07549 44.9382 4.04558 44.836 4.01566 44.7278C3.96778 44.5896 3.91991 44.4513 3.87802 44.3191C3.8481 44.2109 3.83614 44.0967 3.8122 43.9885C3.78827 43.8623 3.75236 43.73 3.73441 43.6038C3.71645 43.4896 3.71645 43.3754 3.71046 43.2672C3.70448 43.147 3.68652 43.0208 3.68652 42.9006C3.68652 42.7804 3.69849 42.6722 3.70447 42.552C3.71046 42.4438 3.71048 42.3296 3.72244 42.2274C3.74638 42.0651 3.78227 41.9028 3.81817 41.7405L3.83015 41.7345Z" fill="#870303"/>
<path d="M10.1853 15.4441C11.4958 15.7627 12.16 15.8768 13.4945 16.0331C13.7757 16.0031 13.9134 15.985 14.1946 15.943C14.6315 27.4052 15.17 38.8374 15.8103 50.2877C13.2072 50.8166 10.3768 50.4319 8.09689 49.1997L8.3123 49.344C8.16869 49.2719 8.03703 49.1817 7.89341 49.0975C7.75578 49.0194 7.62414 48.9413 7.49249 48.8571C6.99582 48.5446 6.52307 48.202 6.10419 47.8173L5.98452 47.7091L6.01443 47.7331L5.91869 47.637L5.97853 47.7091L5.73318 47.4506C5.63744 47.3545 5.5357 47.2523 5.44594 47.1561L5.39209 47.09C5.29634 46.9818 5.21257 46.8676 5.12879 46.7594L5.08691 46.7053C7.20526 36.4031 8.91669 25.8965 10.1793 15.4501L10.1853 15.4441Z" fill="#BC0000"/>
<path opacity="0.58" d="M8.24617 45.6895C8.70694 45.7797 9.1318 45.383 9.19164 44.818C10.0713 36.1807 10.4603 31.8531 11.1125 23.1858C11.1544 22.6147 10.927 22.1098 10.5979 22.0437C10.2748 21.9776 9.96359 22.3803 9.90974 22.9513C9.07197 31.5886 8.59325 35.8982 7.53407 44.4994C7.46226 45.0644 7.77941 45.6054 8.24018 45.6955L8.24617 45.6895Z" fill="#FF7D7D"/>
<g style="mix-blend-mode:multiply">
<path d="M13.4946 16.0271C15.3975 15.8108 16.337 15.6184 18.1861 15.0714C18.3776 16.3156 18.5571 17.4877 18.7366 18.5997C17.2167 19.5734 15.4155 20.1444 13.4766 20.1444C11.5378 20.1444 9.76653 19.5794 8.24658 18.6177C8.4261 17.4937 8.60561 16.3216 8.7971 15.0654C10.6462 15.6124 11.5857 15.8047 13.4886 16.0211L13.4946 16.0271Z" fill="#B5B0A7"/>
</g>
<path d="M13.4946 18.2334C18.3858 18.2334 22.3509 14.2507 22.3509 9.33774C22.3509 4.42477 18.3858 0.442017 13.4946 0.442017C8.60331 0.442017 4.63818 4.42477 4.63818 9.33774C4.63818 14.2507 8.60331 18.2334 13.4946 18.2334Z" fill="#870303"/>
<path d="M13.0636 16.1778C17.2476 16.1778 20.6394 12.7709 20.6394 8.56831C20.6394 4.36573 17.2476 0.958862 13.0636 0.958862C8.87959 0.958862 5.48779 4.36573 5.48779 8.56831C5.48779 12.7709 8.87959 16.1778 13.0636 16.1778Z" fill="#BC0000"/>
<path d="M12.0282 13.1244C15.1976 13.1244 17.7669 10.5437 17.7669 7.36025C17.7669 4.17678 15.1976 1.59607 12.0282 1.59607C8.85885 1.59607 6.28955 4.17678 6.28955 7.36025C6.28955 10.5437 8.85885 13.1244 12.0282 13.1244Z" fill="#FF0000"/>
<path opacity="0.58" d="M8.01318 5.11821C8.01318 6.10997 8.81504 6.9154 9.80241 6.9154C10.7898 6.9154 11.5916 6.10997 11.5916 5.11821C11.5916 4.12646 10.7898 3.32104 9.80241 3.32104C8.81504 3.32104 8.01318 4.12646 8.01318 5.11821Z" fill="#FF7D7D"/>
</svg>
