<svg width="27" height="56" viewBox="0 0 27 56" fill="none" xmlns="http://www.w3.org/2000/svg">
<path d="M0.987808 45.6348C0.999777 45.7791 1.01174 45.9293 1.03567 46.0736C1.05362 46.1938 1.08953 46.314 1.11347 46.4342C1.14339 46.5725 1.17929 46.7167 1.22118 46.855C1.25708 46.9692 1.30495 47.0834 1.35283 47.1976C1.40668 47.3418 1.46653 47.4861 1.53236 47.6303C1.58621 47.7385 1.64604 47.8407 1.70588 47.9489C1.79564 48.1112 1.8914 48.2735 1.99911 48.4358C2.06494 48.5319 2.13076 48.6221 2.20257 48.7183C2.36414 48.9346 2.54365 49.145 2.73514 49.3554C2.80695 49.4335 2.87277 49.5117 2.94458 49.5838C3.06426 49.704 3.19592 49.8182 3.32158 49.9324C3.43528 50.0346 3.54897 50.1428 3.67464 50.245C3.81825 50.3592 3.97384 50.4734 4.12943 50.5816C4.28501 50.6958 4.4346 50.81 4.60216 50.9181C4.97915 51.1646 5.3741 51.381 5.787 51.5853C5.90668 51.6454 6.02637 51.6995 6.14605 51.7536C6.4632 51.9039 6.79233 52.0421 7.12145 52.1683C7.24711 52.2164 7.36679 52.2645 7.49246 52.3126C7.69591 52.3847 7.91133 52.4509 8.12077 52.511C8.28833 52.5651 8.46187 52.6192 8.63541 52.6672C8.85084 52.7273 9.06625 52.7694 9.28168 52.8235C9.45522 52.8656 9.62875 52.9077 9.80229 52.9437C10.2631 53.0339 10.7298 53.106 11.2026 53.1601C11.3701 53.1781 11.5437 53.1902 11.7172 53.2082C11.9745 53.2322 12.2318 53.2503 12.4951 53.2683C12.6926 53.2803 12.896 53.2803 13.0935 53.2863C13.303 53.2863 13.5064 53.2863 13.7159 53.2863C13.9253 53.2863 14.1347 53.2743 14.3442 53.2683C14.5476 53.2563 14.7451 53.2503 14.9486 53.2322C15.146 53.2142 15.3495 53.1962 15.547 53.1781C15.7444 53.1541 15.9419 53.1301 16.1394 53.106C16.3429 53.076 16.5523 53.0459 16.7558 53.0098C16.9652 52.9738 17.1686 52.9317 17.3781 52.8896C17.5636 52.8536 17.7431 52.8115 17.9226 52.7694C18.1799 52.7093 18.4313 52.6372 18.6826 52.5591C18.8322 52.517 18.9818 52.4749 19.1314 52.4268C19.5862 52.2766 20.035 52.1083 20.4659 51.9219C20.5317 51.8919 20.5975 51.8558 20.6633 51.8258C21.2498 51.5613 21.8183 51.2608 22.3449 50.9242C24.8163 49.3313 26.049 47.2396 26.043 45.1479V47.42C26.055 49.5117 24.8222 51.6034 22.3508 53.1962C21.8182 53.5388 21.2438 53.8393 20.6514 54.1098C20.6155 54.1278 20.5855 54.1519 20.5436 54.1639C20.5197 54.1759 20.5018 54.1819 20.4778 54.1879C20.041 54.3803 19.5922 54.5486 19.1314 54.6988C19.0955 54.7109 19.0596 54.7289 19.0237 54.7409C18.916 54.777 18.8023 54.801 18.6886 54.8311C18.4373 54.9032 18.1859 54.9753 17.9286 55.0414C17.8568 55.0595 17.785 55.0835 17.7132 55.1015C17.6055 55.1256 17.4978 55.1436 17.3901 55.1616C17.1687 55.2097 16.9532 55.2518 16.7318 55.2879C16.6421 55.3059 16.5583 55.3239 16.4685 55.336C16.3728 55.354 16.277 55.36 16.1753 55.372C15.9659 55.4021 15.7564 55.4261 15.547 55.4502C15.4452 55.4622 15.3495 55.4802 15.2478 55.4862C15.152 55.4922 15.0623 55.4982 14.9665 55.5043C14.7511 55.5223 14.5357 55.5343 14.3202 55.5403C14.2185 55.5403 14.1108 55.5583 14.0091 55.5583C13.9253 55.5583 13.8475 55.5583 13.7637 55.5583C13.5244 55.5583 13.285 55.5583 13.0516 55.5583C12.9439 55.5583 12.8362 55.5583 12.7285 55.5583C12.6627 55.5583 12.6028 55.5463 12.537 55.5463C12.2438 55.5343 11.9506 55.5103 11.6573 55.4802C11.5496 55.4682 11.4419 55.4682 11.3342 55.4562C11.2983 55.4562 11.2684 55.4441 11.2385 55.4381C10.7538 55.384 10.2691 55.3059 9.79632 55.2157C9.77837 55.2157 9.75443 55.2157 9.73647 55.2037C9.61679 55.1797 9.5031 55.1436 9.38342 55.1196C9.13209 55.0655 8.88076 55.0054 8.63541 54.9393C8.47384 54.8972 8.31825 54.8431 8.16267 54.795C7.94126 54.7289 7.71984 54.6628 7.50442 54.5846C7.45655 54.5666 7.40868 54.5546 7.36081 54.5426C7.28302 54.5125 7.2112 54.4764 7.13341 54.4464C6.79831 54.3202 6.47518 54.1819 6.15204 54.0316C6.03236 53.9775 5.91267 53.9235 5.79299 53.8633C5.38608 53.659 4.98515 53.4366 4.61414 53.1962L4.45854 53.094C4.34485 53.0159 4.24311 52.9317 4.1354 52.8536C3.9858 52.7454 3.83022 52.6312 3.6866 52.517C3.56692 52.4208 3.46519 52.3246 3.35149 52.2225C3.21386 52.0962 3.07025 51.976 2.94458 51.8438C2.92065 51.8197 2.89671 51.8017 2.87278 51.7777C2.83089 51.7296 2.79498 51.6815 2.75309 51.6394C2.55562 51.423 2.37011 51.2067 2.20854 50.9843C2.17264 50.9362 2.12478 50.8941 2.09486 50.846C2.06494 50.7979 2.04099 50.7499 2.01107 50.7018C1.89738 50.5395 1.80163 50.3712 1.71187 50.2029C1.67597 50.1368 1.62809 50.0767 1.59218 50.0105C1.57423 49.9805 1.56826 49.9444 1.55031 49.9084C1.4785 49.7581 1.41866 49.6078 1.35882 49.4576C1.3289 49.3734 1.28102 49.2953 1.25708 49.2111C1.24511 49.1811 1.24512 49.151 1.23316 49.127C1.18528 48.9827 1.15535 48.8445 1.12543 48.7002C1.10149 48.6101 1.07158 48.5139 1.05362 48.4237C1.05362 48.3997 1.05364 48.3757 1.04765 48.3516C1.02372 48.2014 1.01174 48.0511 0.99977 47.9008C0.993786 47.8047 0.975841 47.7145 0.969857 47.6183V47.4981L0.963867 45.2261C0.963867 45.3643 0.981812 45.5026 0.99378 45.6348H0.987808Z" fill="#7F5D08"/>
<path d="M4.656 39.4498C-0.250918 42.6174 -0.280842 47.7565 4.59615 50.9241C9.47314 54.0917 17.42 54.0917 22.3269 50.9241C27.2338 47.7565 27.2637 42.6174 22.3867 39.4498C17.5097 36.2822 9.56291 36.2822 4.656 39.4498Z" fill="#F9B800"/>
<path d="M3.82403 41.7404C6.15182 31.1737 7.15116 25.8303 8.80276 15.0773C10.6518 15.6242 11.5913 15.8166 13.4942 16.033C15.3972 15.8166 16.3367 15.6242 18.1857 15.0773C19.8254 25.7341 20.8067 31.0295 23.1106 41.506L23.1345 41.6021L23.1645 41.7404C23.1944 41.8786 23.2243 42.0169 23.2422 42.1611V42.1792C23.2602 42.3054 23.2602 42.4376 23.2662 42.5699C23.2662 42.672 23.2841 42.7682 23.2841 42.8764C23.2841 43.0086 23.2662 43.1469 23.2542 43.2851C23.2482 43.3873 23.2422 43.4835 23.2303 43.5856C23.2123 43.7239 23.1764 43.8681 23.1465 44.0064C23.1226 44.1086 23.1106 44.2047 23.0867 44.3069C23.0508 44.4512 22.9969 44.5894 22.943 44.7337C22.9071 44.8358 22.8832 44.932 22.8413 45.0342C22.7815 45.1784 22.7097 45.3167 22.6379 45.461C22.59 45.5631 22.5481 45.6593 22.4942 45.7615C22.4165 45.8997 22.3207 46.038 22.2309 46.1822C22.1651 46.2784 22.1113 46.3806 22.0394 46.4768C21.9377 46.621 21.824 46.7592 21.7103 46.8975L21.4889 47.174C21.2855 47.4024 21.0641 47.6248 20.8247 47.8412C20.3819 48.2439 19.9031 48.6045 19.3825 48.9231L19.4005 48.899C16.1332 50.9366 11.4956 51.0508 8.09066 49.2116L8.30607 49.3558C8.16246 49.2837 8.03082 49.1935 7.8872 49.1094C7.74957 49.0313 7.61791 48.9531 7.48626 48.869C6.98959 48.5564 6.51684 48.2138 6.09796 47.8291L5.97829 47.7209L6.0082 47.745L5.91246 47.6488L5.9723 47.7209L5.72695 47.4625C5.63121 47.3663 5.52949 47.2641 5.43973 47.168L5.38588 47.1018C5.29013 46.9937 5.20635 46.8795 5.12258 46.7713C5.04478 46.6751 4.961 46.5789 4.89518 46.4768L4.8473 46.3986L4.79344 46.3265L4.82935 46.3686L4.75754 46.2544C4.64983 46.0921 4.54211 45.9298 4.45235 45.7615L4.33268 45.509C4.25489 45.3528 4.17708 45.2025 4.11724 45.0462C4.07536 44.944 4.04545 44.8419 4.01553 44.7337C3.96765 44.5954 3.91978 44.4572 3.88388 44.3249C3.85396 44.2168 3.84198 44.1026 3.81804 43.9944C3.79411 43.8681 3.75822 43.7359 3.74027 43.6097C3.72231 43.4955 3.72231 43.3813 3.71632 43.2671C3.71034 43.1469 3.69238 43.0206 3.69238 42.9004C3.69238 42.7802 3.70435 42.672 3.71033 42.5518C3.71632 42.4436 3.71632 42.3294 3.72829 42.2272C3.75222 42.065 3.78813 41.9027 3.82403 41.7404Z" fill="#B78806"/>
<path d="M10.179 15.444C11.4895 15.7625 12.1537 15.8767 13.4881 16.033C13.7694 16.0029 13.907 15.9849 14.1883 15.9428C14.6251 27.4051 15.1637 38.8373 15.804 50.2875C13.2009 50.8165 10.3705 50.4318 8.09054 49.1996L8.30595 49.3439C8.16234 49.2717 8.0307 49.1816 7.88708 49.0974C7.74945 49.0193 7.61779 48.9412 7.48614 48.857C6.98947 48.5444 6.51673 48.2018 6.09784 47.8172L5.97817 47.709L6.00809 47.733L5.91234 47.6368L5.97218 47.709L5.72683 47.4505C5.63109 47.3543 5.52937 47.2522 5.43961 47.156L5.38576 47.0899C5.29001 46.9817 5.20624 46.8675 5.12246 46.7593L5.08057 46.7052C7.19892 36.403 8.91036 25.8964 10.173 15.45L10.179 15.444Z" fill="#D19F00"/>
<path d="M8.24031 45.6894C8.70108 45.7795 9.12594 45.3828 9.18578 44.8178C10.0654 36.1806 10.4544 31.8529 11.1067 23.1856C11.1486 22.6146 10.9212 22.1097 10.592 22.0436C10.2689 21.9775 9.95773 22.3802 9.90388 22.9512C9.06611 31.5885 8.58739 35.8981 7.52821 44.4993C7.4564 45.0643 7.77355 45.6052 8.23432 45.6954L8.24031 45.6894Z" fill="#FCDE63"/>
<path d="M3.82403 41.7404C6.15182 31.1737 7.15116 25.8303 8.80276 15.0773C10.6518 15.6242 11.5913 15.8166 13.4942 16.033C15.3972 15.8166 16.3367 15.6242 18.1857 15.0773C19.8254 25.7341 20.8067 31.0295 23.1106 41.506L23.1345 41.6021L23.1645 41.7404C23.1944 41.8786 23.2243 42.0169 23.2422 42.1611V42.1792C23.2602 42.3054 23.2602 42.4376 23.2662 42.5699C23.2662 42.672 23.2841 42.7682 23.2841 42.8764C23.2841 43.0086 23.2662 43.1469 23.2542 43.2851C23.2482 43.3873 23.2422 43.4835 23.2303 43.5856C23.2123 43.7239 23.1764 43.8681 23.1465 44.0064C23.1226 44.1086 23.1106 44.2047 23.0867 44.3069C23.0508 44.4512 22.9969 44.5894 22.943 44.7337C22.9071 44.8358 22.8832 44.932 22.8413 45.0342C22.7815 45.1784 22.7097 45.3167 22.6379 45.461C22.59 45.5631 22.5481 45.6593 22.4942 45.7615C22.4165 45.8997 22.3207 46.038 22.2309 46.1822C22.1651 46.2784 22.1113 46.3806 22.0394 46.4768C21.9377 46.621 21.824 46.7592 21.7103 46.8975L21.4889 47.174C21.2855 47.4024 21.0641 47.6248 20.8247 47.8412C20.3819 48.2439 19.9031 48.6045 19.3825 48.9231L19.4005 48.899C16.1332 50.9366 11.4956 51.0508 8.09066 49.2116L8.30607 49.3558C8.16246 49.2837 8.03082 49.1935 7.8872 49.1094C7.74957 49.0313 7.61791 48.9531 7.48626 48.869C6.98959 48.5564 6.51684 48.2138 6.09796 47.8291L5.97829 47.7209L6.0082 47.745L5.91246 47.6488L5.9723 47.7209L5.72695 47.4625C5.63121 47.3663 5.52949 47.2641 5.43973 47.168L5.38588 47.1018C5.29013 46.9937 5.20635 46.8795 5.12258 46.7713C5.04478 46.6751 4.961 46.5789 4.89518 46.4768L4.8473 46.3986L4.79344 46.3265L4.82935 46.3686L4.75754 46.2544C4.64983 46.0921 4.54211 45.9298 4.45235 45.7615L4.33268 45.509C4.25489 45.3528 4.17708 45.2025 4.11724 45.0462C4.07536 44.944 4.04545 44.8419 4.01553 44.7337C3.96765 44.5954 3.91978 44.4572 3.88388 44.3249C3.85396 44.2168 3.84198 44.1026 3.81804 43.9944C3.79411 43.8681 3.75822 43.7359 3.74027 43.6097C3.72231 43.4955 3.72231 43.3813 3.71632 43.2671C3.71034 43.1469 3.69238 43.0206 3.69238 42.9004C3.69238 42.7802 3.70435 42.672 3.71033 42.5518C3.71632 42.4436 3.71632 42.3294 3.72829 42.2272C3.75222 42.065 3.78813 41.9027 3.82403 41.7404Z" fill="#B78806"/>
<path d="M10.179 15.444C11.4895 15.7625 12.1537 15.8767 13.4881 16.033C13.7694 16.0029 13.907 15.9849 14.1883 15.9428C14.6251 27.4051 15.1637 38.8373 15.804 50.2875C13.2009 50.8165 10.3705 50.4318 8.09054 49.1996L8.30595 49.3439C8.16234 49.2717 8.0307 49.1816 7.88708 49.0974C7.74945 49.0193 7.61779 48.9412 7.48614 48.857C6.98947 48.5444 6.51673 48.2018 6.09784 47.8172L5.97817 47.709L6.00809 47.733L5.91234 47.6368L5.97218 47.709L5.72683 47.4505C5.63109 47.3543 5.52937 47.2522 5.43961 47.156L5.38576 47.0899C5.29001 46.9817 5.20624 46.8675 5.12246 46.7593L5.08057 46.7052C7.19892 36.403 8.91036 25.8964 10.173 15.45L10.179 15.444Z" fill="#D19F00"/>
<path opacity="0.56" d="M8.24031 45.6893C8.70108 45.7794 9.12594 45.3827 9.18578 44.8177C10.0654 36.1805 10.4544 31.8528 11.1067 23.1855C11.1486 22.6145 10.9212 22.1096 10.592 22.0435C10.2689 21.9774 9.95773 22.3801 9.90388 22.9511C9.06611 31.5883 8.58739 35.898 7.52821 44.4992C7.4564 45.0642 7.77355 45.6051 8.23432 45.6953L8.24031 45.6893Z" fill="#FCDE63"/>
<g style="mix-blend-mode:multiply">
<path d="M13.4941 16.0329C15.397 15.8165 16.3365 15.6241 18.1856 15.0772C18.3771 16.3214 18.5566 17.4874 18.7361 18.6054C17.2162 19.5791 15.415 20.1501 13.4761 20.1501C11.5493 20.1501 9.76604 19.5851 8.24609 18.6234C8.42561 17.4994 8.60513 16.3274 8.79662 15.0712C10.6457 15.6181 11.5852 15.8105 13.4881 16.0269L13.4941 16.0329Z" fill="#B5B0A7"/>
</g>
<path d="M4.6377 9.3375C4.6377 14.2542 8.60511 18.2332 13.4941 18.2332C18.389 18.2332 22.3504 14.2482 22.3504 9.3375C22.3504 4.42682 18.383 0.441772 13.4941 0.441772C8.60511 0.441772 4.6377 4.42682 4.6377 9.3375Z" fill="#B78806"/>
<path d="M13.0636 16.1775C17.2476 16.1775 20.6394 12.7706 20.6394 8.56806C20.6394 4.36548 17.2476 0.958618 13.0636 0.958618C8.87959 0.958618 5.48779 4.36548 5.48779 8.56806C5.48779 12.7706 8.87959 16.1775 13.0636 16.1775Z" fill="#D19F00"/>
<path d="M6.28955 7.36599C6.28955 10.5516 8.8567 13.1302 12.0282 13.1302C15.1998 13.1302 17.7669 10.5516 17.7669 7.36599C17.7669 4.18036 15.1998 1.60181 12.0282 1.60181C8.8567 1.60181 6.28955 4.18036 6.28955 7.36599Z" fill="#F9B800"/>
<path opacity="0.56" d="M8.01318 5.11797C8.01318 6.10972 8.81504 6.91516 9.80241 6.91516C10.7898 6.91516 11.5916 6.10972 11.5916 5.11797C11.5916 4.12622 10.7898 3.3208 9.80241 3.3208C8.81504 3.3208 8.01318 4.12622 8.01318 5.11797Z" fill="#FCDE63"/>
</svg>
